<?xml version="1.0" encoding="UTF-8" standalone="no"?>
<!-- Created with Inkscape (http://www.inkscape.org/) -->

<svg
   version="1.1"
   id="svg641"
   width="1758.6666"
   height="164"
   viewBox="0 0 1758.6666 164"
   sodipodi:docname="bar-split.svg"
   inkscape:version="1.2.2 (b0a8486541, 2022-12-01)"
   xmlns:inkscape="http://www.inkscape.org/namespaces/inkscape"
   xmlns:sodipodi="http://sodipodi.sourceforge.net/DTD/sodipodi-0.dtd"
   xmlns="http://www.w3.org/2000/svg"
   xmlns:svg="http://www.w3.org/2000/svg">
  <defs
     id="defs645" />
  <sodipodi:namedview
     id="namedview643"
     pagecolor="#ffffff"
     bordercolor="#000000"
     borderopacity="0.25"
     inkscape:showpageshadow="2"
     inkscape:pageopacity="0.0"
     inkscape:pagecheckerboard="0"
     inkscape:deskcolor="#d1d1d1"
     showgrid="false"
     inkscape:zoom="0.46335078"
     inkscape:cx="872.98872"
     inkscape:cy="605.37289"
     inkscape:window-width="1920"
     inkscape:window-height="1135"
     inkscape:window-x="0"
     inkscape:window-y="0"
     inkscape:window-maximized="1"
     inkscape:current-layer="g647" />
  <g
     inkscape:groupmode="layer"
     inkscape:label="Image"
     id="g647"
     transform="translate(-132.07225,349.4692)">
    <path
       id="path689"
       style="fill:#2e2f2e;stroke:none;stroke-width:1.33333"
       d="m 1589.4056,-341.4692 1.3333,1.33334 -1.3333,-1.33334 m 13.3333,0 1.3333,1.33334 -1.3333,-1.33334 m -536,5.33334 v -1.33334 h 2.6667 v -1.33333 c -4.2587,0.0173 -7.028,-0.53733 -8,4 -11.9494,-3.376 -23.5387,-4.292 -36,-3.98 -6.0827,0.15067 -13.1294,0.568 -12,7.98 l 38.6666,-2.31333 12,-1.68667 5.3334,2.66667 4,-2.66667 c 4.816,4.80133 12.332,-1.70667 17.3333,-4 l -2.6667,2.66667 v 1.33333 h 13.3334 l -2.6667,4 14.6667,-4 v -1.33333 l -21.3334,-2.66667 h 26.6667 c -16.3587,-6.864 -35.94,2.15333 -52,2.66667 m -24,-1.33334 -2.6667,2.66667 v -2.66667 h 2.6667 m 6.6667,0 -1.3334,1.33334 1.3334,-1.33334 m 14.6666,0 -1.3333,1.33334 1.3333,-1.33334 m -29.3333,1.77734 0.444,0.44533 c -0.6573,0.21867 -1.4747,-0.44533 -0.444,-0.44533 m 13.3333,2.22266 -4,-1.33333 4,1.33333 m 74.6667,-2.66666 -8,2.66666 40,-1.33333 22.6667,4 c 0,-5.03467 4.4413,-2.55467 6.6666,0 l -5.3333,-1.33333 v 1.33333 l 54.44,1.232 113.56,1.43467 -4,5.33333 v -2.66667 l -4,2.66667 -1.3333,-4 h -22.6667 c -10.6733,5.116 -35.7,4.19867 -46.6667,0 h -1.3333 l -26.6667,1.33333 -57.3333,-0.452 -25.3333,-2.21466 -4,1.33333 1.3333,-2.66667 c -6.232,2.65334 -12.216,4.30267 -18.6667,1.33334 h -1.3333 l -2.6667,2.66666 v -4 h -6.6666 l -2.6667,4 v -2.66666 l -36,1.268 -74.6667,0.0653 v 122.66667 l 32,2.66666 v -1.33333 h -2.6666 v -1.33333 l 62.6666,4 20,-1.33334 6.6667,2.66667 v -1.33333 h -2.6667 v -1.33331 h 14.6667 v -1.33333 l -18.6667,-1.33333 v -1.33334 l 2.6667,-1.33333 -36,-4 v -1.33333 l 145.3333,8.848 64,0.48533 v 1.33333 h -4 v 1.33334 c 2.2387,-0.0587 8.564,-0.68267 4,-2.66667 v -1.33333 h 8 v 1.33333 l -4,2.66667 h 5.3334 l 4,-4 -30.6667,-2.66667 v -1.33333 c 27.1387,-6.45867 62.64,2.31333 90.6667,2.66666 l -2.6667,-4 8,-1.33333 v 1.33333 c -3.08,1.69734 -1.2533,2.632 1.3333,4 l -1.3333,-4 54.6667,1.33334 v -1.33334 l -5.3334,-2.66666 c 22.9067,4.98 50.9067,5.50266 74.6667,2.66666 l -1.3333,4 h 5.3333 v 1.33334 l -50.6667,-1.33334 v 1.33334 h 82.6667 v 1.33333 h -6.6667 v 1.33333 l 34.6667,1.33334 v -1.33334 l -18.6667,-1.33333 v -1.33333 l 10.6667,1.33333 v -1.33333 l -42.6667,-6.66667 1.3334,5.33333 h 8 v 2.66667 h -13.3334 l 1.3334,-4 h -8 l 2.6666,-2.66667 v -1.33333 l -46.6666,-1.33333 v -1.33334 h 26.6666 l 81.3334,1.33334 v -1.33334 l -12,-1.33333 v -1.33333 l 20,1.33333 v -1.33333 l -10.6667,-4 v -1.33334 l 10.6667,1.33334 v -1.33334 l -26.6667,-6.66666 1.3333,4 -8,-4 -16,-1.33334 v -1.33333 l 76,1.33333 v -2.66666 l -40,-4 v -2.66667 l 86.6667,2.66667 -5.3333,1.33333 10.6666,5.33333 9.3334,1.33334 v -1.33334 l -2.6667,-2.66666 29.3333,4 v -1.33334 h -16 v -1.33333 h 6.6667 v -1.33333 h -10.6667 v -1.33334 l 14.6667,-4 v -5.33333 l 21.3333,2.66667 v -1.33334 l -16,-1.33333 v -1.33333 l 22.6667,2.66666 18.6667,-2.66666 2.6666,2.66666 c 0,-4.716 28.92,-3.40933 34.6667,-2.66666 l 9.3333,-5.33334 v -1.33333 l -20,-5.33333 h 14.6667 v -1.33334 c -8.5867,0 -16.7467,1.21334 -24,-4 l 1.3333,-1.33333 c 19.08,10.184 52.3467,0 73.3334,0 v -1.33333 l -82.6667,-1.33334 v -1.33333 h 5.3333 v -1.33333 h -16 v -1.33334 h -14.6666 v -2.66666 h 17.3333 v -1.33334 l -12,-1.33333 v -1.33333 l 17.3333,-2.66667 v -1.33333 c -12.4266,1.03466 -24.96,-0.97467 -37.3333,-0.54134 -7.7333,0.27067 -16.3733,1.92267 -22.6667,-3.45866 l 10.6667,1.33333 v -1.33333 l -2.6667,-1.33334 13.3334,4 c 0.7466,-4.456 3.6266,-5.16666 2.6666,-1.33333 h 1.3334 l 1.3333,-4 46.6667,-2.66667 v -1.33333 l -2.6667,-2.66667 h 6.6667 l -2.6667,5.33334 73.3333,-6.66667 v -1.33333 l -2.6666,-2.66667 29.3333,-1.33333 v -1.33334 c -32.3867,0 -65.0667,3.17334 -97.3333,2.54667 -7.84,-0.152 -30.9067,-1.704 -36,4.12 h -1.3334 -1.3333 l -20,-6.66667 34.6667,1.33334 v -1.33334 l -100,-6.66666 v -1.33334 l 61.3333,-1.33333 9.3333,2.66667 c 2.08,-3.476 3.4534,-3.13334 2.6667,0 l 70.6667,-4 c -3.48,-4.96267 -9.24,-2.87067 -14.6667,-2.66667 v -1.33333 l 12,-1.33334 v -1.33333 l -22.6667,-4 -9.3333,4 -1.3333,-1.33333 12,-4 v -1.33334 l -45.3334,2.66667 v -1.33333 h 6.6667 v -1.33334 c -9.8,-0.964 -19.6,1.83334 -29.3333,2.54667 -19.36,1.41733 -39.28,0.66667 -58.6667,0.20933 -9.0933,-0.21466 -27.36,-2.51733 -34.6667,2.57734 -9.48,-6.54134 -30.1466,-2.428 -41.3333,-2.06 -34.8933,1.152 -70.72,-2.004 -105.3333,0.72666 v -2.66666 h 21.3333 l 2.6667,-2.66667 c 0.5466,3.33733 4.7866,3.33733 5.3333,0 h 4 l -1.3333,2.66667 h 36 v -1.33334 l -1.3334,-2.66666 c -13.4666,0.41866 -38.1466,0.76933 -50.6666,-4 l -6.6667,4 c -0.7733,-4.85334 -8.0133,-2.81334 -12,-2.692 -8.28,0.25333 -34.3733,-4.268 -38.6667,2.692 h -5.3333 l -17.3333,-2.66667 h -44 v -1.33333 c 20.56,-4.76267 43.12,-2.92934 64.12,-2.888 7.5066,0.0147 20.1333,2.89866 25.2133,-3.77867 l -84,2.67067 -148,-0.004 v 1.33333 l 2.6667,2.66667 -4,-4 -28,-1.33334 -38.6667,1.33334 v -2.66667 h 13.3333 c -5.6346,-2.364 -13.5666,-2.55733 -17.3333,2.66667 m 145.3333,0 -1.3333,1.33333 1.3333,-1.33333 m -102.6666,1.33333 v 1.33333 h -9.3334 l 9.3334,-1.33333 m 168,0 -1.3334,1.33333 1.3334,-1.33333 m -138.6667,2.66667 v 1.33333 h -6.6667 l 6.6667,-1.33333 m 18.6667,0 -1.3334,1.33333 1.3334,-1.33333 m 110.6666,0 -1.3333,1.33333 1.3333,-1.33333 m 5.3334,0.444 0.44,0.44533 c -0.6534,0.21867 -1.4667,-0.44533 -0.44,-0.44533 m 4,0 0.44,0.44533 c -0.6534,0.21867 -1.4667,-0.44533 -0.44,-0.44533 m 17.3333,2.22266 -1.3333,1.33334 1.3333,-1.33334 m 38.6667,2.66667 -37.3334,-1.33333 c 7.6,-2.15334 31.7734,-4.76667 37.3334,1.33333 m 34.6666,-2.66667 -1.3333,1.33334 1.3333,-1.33334 m 9.3334,0 -1.3334,1.33334 1.3334,-1.33334 m 14.6666,0 v 1.33334 l -6.6666,1.33333 6.6666,-2.66667 m -100,2.66667 4,4 -4,-4 m 125.3334,0 -1.3334,1.33333 1.3334,-1.33333 m 12,0 -1.3334,1.33333 1.3334,-1.33333 m 269.3333,5.33333 30.6667,-2.66666 c -6.2134,-3.008 -28.56,-4.76267 -30.6667,2.66666 m -389.3333,-3.556 c 1.0266,0 0.2133,0.664 -0.44,0.44534 l 0.44,-0.44534 m 54.6666,-0.444 -2.6666,2.66667 v -2.66667 h 2.6666 m -58.6666,1.33334 v 1.33333 l -5.3334,1.33333 5.3334,-2.66666 m 13.3333,0 5.3333,1.33333 v 1.33333 l -5.3333,-2.66666 m 9.3333,0 -1.3333,1.33333 1.3333,-1.33333 m 7.56,0.88933 -0.4533,0.888 0.4533,-0.888 m 8.44,0.444 v 1.33333 h -5.3333 l 5.3333,-1.33333 m 4.8934,-0.444 -0.4534,0.888 0.4534,-0.888 m 25.7733,1.77733 h -4 l 1.3333,-2.66666 2.6667,2.66666 m 12,-2.66666 -5.3333,2.66666 5.3333,-2.66666 m -29.3333,1.77733 c 1.0266,0 0.2133,0.664 -0.44,0.44533 l 0.44,-0.44533 m 8,-0.444 -1.3334,1.33333 1.3334,-1.33333 m 2.6666,0.444 c 1.0267,0 0.2134,0.664 -0.44,0.44533 l 0.44,-0.44533 m 261.3334,0.88933 -1.3334,1.33334 1.3334,-1.33334 m 46.6666,1.77734 c 1.0267,0 0.2134,0.664 -0.44,0.44533 l 0.44,-0.44533 m -30.6666,1.33333 c 1.0266,0 0.2133,0.664 -0.44,0.44533 l 0.44,-0.44533 m 9.3333,0 c 1.0267,0 0.2133,0.664 -0.44,0.44533 l 0.44,-0.44533 m 10.6667,-0.444 -1.3334,1.33333 1.3334,-1.33333 m 53.3333,4 -1.3333,1.33333 1.3333,-1.33333 m -5.3333,1.77733 c 1.0266,0 0.2133,0.664 -0.44,0.44534 l 0.44,-0.44534 m -140,2.66667 c 1.0266,0 0.2133,0.664 -0.44,0.44533 l 0.44,-0.44533 m 68,8.88933 c -5.6134,6.904 -22.5867,1.4 -30.6667,1.33334 l 30.6667,-1.33334 m 126.6666,2.66667 v 1.33333 h -12 l 12,-1.33333 m -72,1.33333 -1.3333,1.33334 1.3333,-1.33334 m 20,2.66667 v 1.33333 h -8 l 8,-1.33333 m -41.3333,0.444 c 1.0267,0 0.2133,0.664 -0.44,0.44533 l 0.44,-0.44533 m 16,0.88933 v 1.33334 l -13.3333,1.33333 13.3333,-2.66667 m -29.3333,2.66667 -1.3334,2.66667 h -1.3333 l -1.3333,-2.66667 h 4 m 13.3333,0 v 1.33333 l -9.3333,1.33334 9.3333,-2.66667 m -52,6.66667 v 2.66666 h -2.6667 v -2.66666 h 2.6667 m 44,6.66666 c -2.8667,2.76667 -4.28,3.41334 -6.6667,0 h 6.6667 m -24.44,0.88934 -0.4533,0.888 0.4533,-0.888 m 12.44,-0.88934 -4,2.66667 4,-2.66667 m 2.6667,5.33334 v 2.66666 h -16 l 16,-2.66666 m 34.6666,13.33333 -1.3333,1.33333 1.3333,-1.33333 m 8,3.11067 c 1.0267,0 0.2134,0.664 -0.44,0.44533 l 0.44,-0.44533 m -12,0.88933 -5.3333,2.66667 v -1.33334 l 5.3333,-1.33333 m 9.3334,1.33333 -5.3334,2.66667 c 0.8134,-3.80133 1.7334,-3.80533 5.3334,-2.66667 m -24,0 -1.3334,1.33334 1.3334,-1.33334 m 4,0 -1.3334,1.33334 1.3334,-1.33334 m 24,2.66667 v 1.33333 l -5.3334,1.33334 5.3334,-2.66667 m 2.6666,1.33333 -1.3333,1.33334 1.3333,-1.33334 m 2.2267,0.88934 -0.4533,0.888 0.4533,-0.888 m 3.1067,0.888 c 1.0266,0 0.2133,0.664 -0.44,0.44533 l 0.44,-0.44533 m 4,-0.444 -1.3334,1.33333 1.3334,-1.33333 m 2.6666,1.33333 v 2.66667 h 10.6667 l -10.6667,-2.66667 m -94.6666,4.444 c 1.0266,0 0.2133,0.664 -0.44,0.44533 l 0.44,-0.44533 m -176,6.22267 -22.6667,-2.66667 c 6.84,0.284 18.1067,-3.61333 22.6667,2.66667 m 2.6666,-4 h 5.3334 1.3333 5.3333 l 8,1.33333 c -2.5066,4.34933 -22.0266,4.124 -20,-1.33333 m 30.6667,0 v 4 l -9.3333,-2.66667 4,1.33333 5.3333,-2.66666 m 6.6667,0 -5.3334,5.33333 1.3334,-5.33333 h 4 m -79.1067,2.22266 -0.4533,0.888 0.4533,-0.888 m 92.44,-0.88933 -4,2.66667 4,-2.66667 m 4,0.444 c 1.0267,0 0.2133,0.664 -0.44,0.44533 l 0.44,-0.44533 m -89.3333,3.556 -4,-2.66667 4,2.66667 m 6.6666,-2.66667 v 1.33334 h -5.3333 l 5.3333,-1.33334 m 191.56,2.22267 -0.4533,0.888 0.4533,-0.888 m -159.56,4.444 -1.3333,1.33333 1.3333,-1.33333 m 6.6667,0 v 1.33333 h -4 l 4,-1.33333 m 10.6667,0 v 2.66667 h -5.3334 v -2.66667 h 5.3334 m 20,2.66667 v 1.33333 h 4 l -4,-1.33333 m -97.3334,6.66666 -1.3333,1.33334 1.3333,-1.33334 m 76,0.444 c 1.0267,0 0.2134,0.664 -0.44,0.44534 l 0.44,-0.44534 m 25.3334,0.88934 v 1.33333 h -4 l 4,-1.33333 m 14.6666,2.66666 -4,-2.66666 4,2.66666 m -94.6666,-1.33333 6.6666,1.33333 v 1.33334 l -8,-1.33334 1.3334,-1.33333 m -25.3334,4 h 1.3334 l 6.6666,1.33333 h -24 l 1.3334,-4 14.6666,2.66667 m 69.3334,-2.66667 -1.3334,1.33334 1.3334,-1.33334 m -493.7774,2.22267 -0.4453,0.888 0.4453,-0.888 m 4.444,-0.88933 -1.3333,1.33333 1.3333,-1.33333 m 5.3334,0.444 c 1.0306,0 0.2133,0.664 -0.444,0.44533 l 0.444,-0.44533 m 78.6666,-0.444 v 1.33333 h -8 l 8,-1.33333 m 12,0 v 1.33333 h -8 l 8,-1.33333 m 5.3334,2.66666 -4,-2.66666 4,2.66666 m 36,-2.66666 v 1.33333 h -30.6667 l 30.6667,-1.33333 m 9.3333,1.33333 v 1.33333 h -5.3333 l 5.3333,-1.33333 m 101.3333,-1.33333 6.6667,1.33333 v 1.33333 l -4,1.33334 h -1.3333 l -2.6667,-2.66667 1.3333,-1.33333 m 12.8894,0.88933 -0.4454,0.888 0.4454,-0.888 m 31.1106,-0.88933 -1.3333,1.33333 1.3333,-1.33333 m 80,2.66666 -4,-2.66666 4,2.66666 m 2.6667,-2.22266 c 1.0267,0 0.2133,0.664 -0.44,0.44533 l 0.44,-0.44533 m 61.3333,-0.444 v 1.33333 l -1.3333,4 h -5.3333 v -5.33333 h 6.6666 m -422.6666,1.33333 -1.3334,1.33333 1.3334,-1.33333 m 37.3333,4 -17.3333,1.33333 c 4.3746,-4.1 13.4053,-7.03066 17.3333,-1.33333 m 108,-4 v 1.33333 l -10.6667,1.33334 10.6667,-2.66667 m 2.6667,0.444 0.444,0.44533 c -0.6574,0.21867 -1.4747,-0.44533 -0.444,-0.44533 m 10.6666,-0.444 v 1.33333 h -5.3333 l 5.3333,-1.33333 m 4,0.444 0.444,0.44533 c -0.6573,0.21867 -1.4746,-0.44533 -0.444,-0.44533 m 4,-0.444 -1.3333,1.33333 1.3333,-1.33333 m 2.6667,0 -1.3333,1.33333 1.3333,-1.33333 m 5.3333,0 -1.3333,1.33333 1.3333,-1.33333 m 82.6667,0 v 1.33333 h -4 l 4,-1.33333 m 42.6667,0 -1.3334,1.33333 1.3334,-1.33333 m 37.3333,0 -1.3333,1.33333 1.3333,-1.33333 m 8.8933,0.88933 -0.4533,0.888 0.4533,-0.888 m 5.7734,-0.88933 -1.3334,4 h -1.3333 l 2.6667,-4 m 14.6666,0.444 c 1.0267,0 0.2134,0.664 -0.44,0.44533 l 0.44,-0.44533 m 5.3334,-0.444 -1.3334,1.33333 1.3334,-1.33333 m 8,2.66667 h -5.3334 c 2.08,-2.41734 3.2534,-2.41734 5.3334,0 m 6.6666,-2.66667 h 1.3334 l 1.3333,1.33333 v 2.66667 c -3,-0.63067 -4.16,-1.14667 -2.6667,-4 m -341.3333,2.66667 v 1.33333 h -5.3333 l 5.3333,-1.33333 m 134.6667,-1.33334 -1.3334,1.33334 1.3334,-1.33334 m 33.3333,0 -1.3333,1.33334 1.3333,-1.33334 m 64,0 -1.3333,1.33334 1.3333,-1.33334 m -228,1.77734 0.444,0.44533 c -0.6573,0.21867 -1.4747,-0.44533 -0.444,-0.44533 m 313.3333,-0.444 -1.3333,1.33333 1.3333,-1.33333 m 40,1.33333 1.3334,1.33333 -1.3334,-1.33333 m 2.6667,0 1.3333,1.33333 -1.3333,-1.33333 m 2.6667,0 2.6666,2.66667 v -2.66667 h -2.6666 m -428,1.33333 -1.3334,1.33334 1.3334,-1.33334 m 2.6666,1.33334 -1.3333,1.33333 1.3333,-1.33333 m 57.3334,2.66666 -4,-1.33333 v 4 l -6.6667,-4 10.6667,1.33333 m 14.6666,-2.66666 v 2.66666 h -13.3333 l 13.3333,-2.66666 m 12,1.33333 v 1.33333 h -4 l 2.6667,2.66667 v 1.33333 h -5.3333 l 6.6666,-5.33333 m 18.6667,2.66667 -17.3333,-1.33334 c 4.2826,-2.068 14.3986,-2.86533 17.3333,1.33334 m 117.3333,-1.33334 v 1.33334 h -5.3333 l 5.3333,-1.33334 m 41.3334,-1.33333 -1.3334,1.33333 1.3334,-1.33333 m -214.6667,1.33333 -1.3333,1.33334 1.3333,-1.33334 m 2.6667,1.33334 -1.3334,1.33333 1.3334,-1.33333 m 8,0.444 0.444,0.44533 c -0.6574,0.21867 -1.4747,-0.44533 -0.444,-0.44533 m 8,-0.444 -2.6667,2.66666 v -2.66666 h 2.6667 m 157.3333,0 v 1.33333 h 4 l -4,-1.33333 m 5.3333,0 v 1.33333 h 4 l -4,-1.33333 m 280,0 -1.3333,1.33333 1.3333,-1.33333 m -433.3333,1.33333 -1.3333,1.33333 1.3333,-1.33333 m 25.3333,1.33333 -1.3333,1.33334 1.3333,-1.33334 m 26.6667,-138.66666 v 1.33333 h 6.6667 l -6.6667,-1.33333 m 40,0 1.3333,1.33333 -1.3333,-1.33333 m 4,0 v 1.33333 h 4 l -4,-1.33333 m 21.3333,0 v 1.33333 h 5.3334 l -5.3334,-1.33333 m 286.6667,0 v 1.33333 h 6.6667 l -6.6667,-1.33333 m 18.6667,0 v 1.33333 h 4 l -4,-1.33333 m 22.6666,0 v 1.33333 h 4 l -4,-1.33333 m 7.56,0.444 0.88,0.44533 -0.88,-0.44533 m 18.6667,0 0.88,0.44533 -0.88,-0.44533 m 8,0 0.88,0.44533 -0.88,-0.44533 m 3.1067,-0.444 1.3333,1.33333 -1.3333,-1.33333 m -409.7774,1.77733 0.888,0.44533 -0.888,-0.44533 m 13.7774,-0.444 1.3333,1.33333 -1.3333,-1.33333 m 246.6666,0 v 1.33333 h 42.6667 l -42.6667,-1.33333 m 45.3334,0 v 1.33333 h 18.6666 l -18.6666,-1.33333 m 21.3333,0 1.3333,1.33333 -1.3333,-1.33333 m -409.3333,4 1.3333,1.33333 -1.3333,-1.33333 m 493.3333,5.33333 h -6.6667 v -1.33333 l 4,-1.33333 v -1.33334 l -18.6666,1.33334 -10.6667,-1.33334 -9.3333,2.66667 v 1.33333 c 33.2,0 67.1733,6.57467 100,-1.33333 l 10.6666,4 v -2.66667 l 28,1.33334 c -5.52,-4.204 -15.8133,-3.75467 -22.6666,-4.02534 -17.2267,-0.67866 -34.9067,-1.984 -52.16,-1.592 -5.5734,0.12667 -21.8,-1.38933 -22.5067,4.284 m -28.44,-3.556 0.88,0.44534 -0.88,-0.44534 m 4.44,0.88934 1.3333,1.33333 -1.3333,-1.33333 m 32,0 -1.3333,1.33333 1.3333,-1.33333 m 16,0 -1.3333,1.33333 1.3333,-1.33333 m -10.6667,1.33333 -1.3333,1.33333 1.3333,-1.33333 m 2.6667,0 -1.3333,1.33333 1.3333,-1.33333 m 5.3333,0 v 1.33333 h -4 l 4,-1.33333 m 40,0 -1.3333,1.33333 1.3333,-1.33333 m -549.3333,-1.33333 1.3333,1.33333 -1.3333,-1.33333 m 13.3333,0 1.3334,1.33333 -1.3334,-1.33333 m 2.6667,0 1.3333,1.33333 -1.3333,-1.33333 m 29.3333,0 1.3334,1.33333 -1.3334,-1.33333 m 5.3334,0 1.3333,1.33333 -1.3333,-1.33333 m 393.3333,0 1.3333,1.33333 -1.3333,-1.33333 m 224,0 1.3333,1.33333 -1.3333,-1.33333 m 17.3333,0 1.3334,1.33333 -1.3334,-1.33333 m 2.6667,0 1.3333,1.33333 -1.3333,-1.33333 m 4,0 v 1.33333 h 32 l -32,-1.33333 m 39.56,0.444 0.88,0.44533 -0.88,-0.44533 m -312.8933,0.88933 1.3333,1.33333 -1.3333,-1.33333 m 2.6666,0 v 1.33333 c 5.7467,0.73067 13.5867,4.104 17.3334,-1.33333 h -17.3334 m 178.6667,0 v 1.33333 h 12 l -12,-1.33333 m -596,1.33333 1.3333,1.33334 -1.3333,-1.33334 m 52,0 1.3333,1.33334 -1.3333,-1.33334 m 13.3333,0 v 1.33334 h 10.6667 l -10.6667,-1.33334 m 13.3334,0 v 1.33334 h 5.3333 l -5.3333,-1.33334 m 360,0 5.3333,4 -5.3333,-4 m 144,0 1.3333,1.33334 -1.3333,-1.33334 m -48,1.33334 1.3333,1.33333 -1.3333,-1.33333 m 58.6666,0 1.3334,1.33333 -1.3334,-1.33333 m -173.3333,1.33333 1.3333,1.33333 -1.3333,-1.33333 m 2.6667,0 1.3333,1.33333 -1.3333,-1.33333 m 24,0 1.3333,1.33333 -1.3333,-1.33333 m 8,0 1.3333,1.33333 -1.3333,-1.33333 m 135.56,0.444 0.88,0.44533 -0.88,-0.44533 m 40.44,-0.444 v 1.33333 h 4 l -4,-1.33333 m 5.3333,0 1.3333,1.33333 -1.3333,-1.33333 m 2.6667,0 v 1.33333 h 4 l -4,-1.33333 m -204.44,1.77733 0.88,0.44534 -0.88,-0.44534 m 24.44,-0.444 1.3333,1.33334 -1.3333,-1.33334 m 234.2266,0.444 0.88,0.44534 -0.88,-0.44534 m -10.2266,4.88934 v 2.66666 l 2.6666,-2.66666 h -2.6666 m 28,4 -6.6667,2.66666 v 1.33334 l 14.6667,-1.33334 v -1.33333 l -8,-1.33333 m 32,1.33333 v 1.33333 h 46.6666 c -12.8,-5.37333 -32.8533,-1.33333 -46.6666,-1.33333 m -58.6667,1.33333 v 1.33334 h 9.3333 l -9.3333,-1.33334 m 10.6667,-1.33333 6.6666,2.66667 v -1.33334 l -6.6666,-1.33333 m 26.6666,0 1.3334,1.33333 -1.3334,-1.33333 m 2.6667,0 1.3333,1.33333 -1.3333,-1.33333 m 2.6667,0 v 1.33333 h 14.6666 l -14.6666,-1.33333 m 64,0 v 1.33333 h 5.3333 l -5.3333,-1.33333 m -173.3334,9.33333 1.3334,1.33334 -1.3334,-1.33334 m 22.6667,4 v 1.33334 h 6.6667 l -6.6667,-1.33334 m 12,14.66667 1.3333,1.33333 -1.3333,-1.33333 m -20,2.66667 v 1.33333 l 13.3333,-1.33333 h -13.3333 m 41.3333,-1.33334 v 1.33334 h 30.6667 l -30.6667,-1.33334 m 35.56,0.444 0.88,0.44534 -0.88,-0.44534 m -95.56,0.88934 v 1.33333 h 5.3334 l -5.3334,-1.33333 m 8.8934,0.444 0.88,0.44533 -0.88,-0.44533 m 24.44,0.88933 v 1.33333 l 14.6666,-1.33333 h -14.6666 m 16,-1.33333 1.3333,1.33333 -1.3333,-1.33333 m 2.6666,0 v 1.33333 h 4 l -4,-1.33333 m 45.3334,1.33333 v 1.33333 l 38.6666,-1.33333 h -38.6666 m 56,-1.33333 1.3333,1.33333 -1.3333,-1.33333 m -65.3334,2.66666 v 1.33334 h 5.3334 l -5.3334,-1.33334 m -52,2.66667 v 1.33333 h 38.6667 l -38.6667,-1.33333 m 45.3334,-1.33333 1.3333,1.33333 -1.3333,-1.33333 m -2.6667,1.33333 1.3333,1.33333 -1.3333,-1.33333 m -45.3333,1.33333 1.3333,1.33334 -1.3333,-1.33334 m 2.6666,1.33334 1.3334,1.33333 -1.3334,-1.33333 m 2.6667,1.33333 1.3333,1.33333 -1.3333,-1.33333 m 8,0 1.3333,1.33333 -1.3333,-1.33333 m 68.8933,0.444 0.88,0.44533 -0.88,-0.44533 m -48.8933,3.556 6.6667,-1.33333 -6.6667,1.33333 m 52,5.33333 v 1.33334 h 8 l -8,-1.33334 m -49.3333,8 v 2.66667 h 2.6666 l -2.6666,-2.66667 m 4,8 v 1.33334 h 4 l -4,-1.33334 m 2.6666,4 1.3334,1.33334 -1.3334,-1.33334 m -73.7733,4.444 0.88,0.44534 -0.88,-0.44534 m 5.7733,-0.444 v 1.33334 h 6.6667 l -6.6667,-1.33334 m -30.6666,5.33334 v 1.33333 l 28,-1.33333 h -28 m 29.3333,-1.33334 1.3333,1.33334 -1.3333,-1.33334 m 2.6667,0 v 1.33334 h 4 l -4,-1.33334 m 9.7733,0.88934 0.4533,0.888 -0.4533,-0.888 m 10.2267,-0.88934 1.3333,1.33334 -1.3333,-1.33334 m 46.6666,1.33334 1.3334,1.33333 -1.3334,-1.33333 m -166.6666,1.33333 v 1.33333 h 10.6666 l -10.6666,-1.33333 m 17.3333,0 v 1.33333 h 8 l -8,-1.33333 m 46.6667,0 1.3333,1.33333 -1.3333,-1.33333 m -74.6667,4 v 1.33333 h 22.6667 l -22.6667,-1.33333 m 24,0 v 1.33333 h 16 l -16,-1.33333 m 64.8933,1.77733 0.88,0.44534 -0.88,-0.44534 m -95.56,0.88934 1.3334,1.33333 -1.3334,-1.33333 m 98.6667,0 v 1.33333 h 12 l -12,-1.33333 m -118.6667,1.33333 v 1.33333 h 4 l -4,-1.33333 m 44,1.33333 1.3334,1.33334 -1.3334,-1.33334 m 34.6667,0 -2.6667,1.33334 v 1.33333 l 2.6667,-2.66667 m -82.6667,1.33334 1.3334,1.33333 -1.3334,-1.33333 m 3.56,0.444 0.88,0.44533 -0.88,-0.44533 m 3.1067,-0.444 v 1.33333 h 5.3333 l -5.3333,-1.33333 m 8.8933,0.444 0.88,0.44533 -0.88,-0.44533 m 9.7734,-0.444 v 1.33333 h 4 l -4,-1.33333 m 10.2266,0.444 0.88,0.44533 -0.88,-0.44533 m 63.1067,-0.444 v 5.33333 l 4,-4 -4,-1.33333 m 18.6667,0 1.3333,1.33333 -1.3333,-1.33333 m 133.3333,0 v 1.33333 h 8 l -8,-1.33333 m -218.6667,1.33333 1.3334,1.33333 -1.3334,-1.33333 m 8,0 v 1.33333 h 5.3334 l -5.3334,-1.33333 m 30.2267,0.444 0.88,0.44533 -0.88,-0.44533 m -56,1.33333 0.88,0.44534 -0.88,-0.44534 m 91.1067,-0.444 1.3333,1.33334 -1.3333,-1.33334 m -86.6667,1.33334 v 1.33333 h 6.6667 l -6.6667,-1.33333 m 45.3333,0 v 1.33333 h 4 l -4,-1.33333 m 48,0 1.3334,1.33333 -1.3334,-1.33333 m -74.6666,1.33333 v 1.33333 h 6.6666 l -6.6666,-1.33333 m -33.3334,2.66667 1.3334,1.33333 -1.3334,-1.33333 m 19.56,1.77733 0.88,0.44533 -0.88,-0.44533 m 13.7734,-0.444 1.3333,1.33333 -1.3333,-1.33333 m 3.56,1.77733 0.88,0.44534 -0.88,-0.44534 m -40.8934,0.88934 1.3334,1.33333 -1.3334,-1.33333 m -64.44,1.77733 0.88,0.44533 -0.88,-0.44533 m 84.44,-0.444 v 1.33333 l 21.3334,1.33334 -21.3334,-2.66667 m 24.8934,1.77733 0.88,0.44534 -0.88,-0.44534 m 4,0 0.88,0.44534 -0.88,-0.44534 m -181.7867,1.77867 0.4533,0.888 -0.4533,-0.888 m -309.7733,0.444 v 1.33333 h 4 l -4,-1.33333 m 248,0 1.3333,1.33333 -1.3333,-1.33333 m 41.3333,0 1.3333,1.33333 -1.3333,-1.33333 m 17.3333,0 1.3334,1.33333 -1.3334,-1.33333 m 6.6667,0 1.3333,1.33333 -1.3333,-1.33333 m 2.6667,0 1.3333,1.33333 -1.3333,-1.33333 m -48,1.33333 1.3333,1.33334 -1.3333,-1.33334 m 52,0 1.3333,1.33334 -1.3333,-1.33334 m -272.444,1.77734 0.888,0.44533 -0.888,-0.44533 m 136,0 0.888,0.44533 -0.888,-0.44533 m 3.1106,-0.444 1.3334,1.33333 -1.3334,-1.33333 m 93.3334,0 1.3333,1.33333 -1.3333,-1.33333 m 2.6666,0 1.3334,1.33333 -1.3334,-1.33333 m 4,0 1.3334,1.33333 -1.3334,-1.33333 m 2.6667,0 1.3333,1.33333 -1.3333,-1.33333 m -201.3333,1.33333 1.3333,1.33333 -1.3333,-1.33333 m 2.6666,0 1.3334,1.33333 -1.3334,-1.33333 m 3.556,0.444 0.888,0.44533 -0.888,-0.44533 m 25.7774,-0.444 v 1.33333 h 4 l -4,-1.33333 m 5.3333,0 1.3333,1.33333 -1.3333,-1.33333 m 2.6667,0 v 1.33333 h 4 l -4,-1.33333 m -112.444,1.77733 0.888,0.44534 -0.888,-0.44534 m 21.3333,0 0.888,0.44534 -0.888,-0.44534 m 112.444,-0.444 1.3333,1.33334 -1.3333,-1.33334 m 2.6667,0 v 1.33334 h 4 l -4,-1.33334 m 26.6666,0 1.3334,1.33334 -1.3334,-1.33334 m -180,1.33334 1.3334,1.33333 -1.3334,-1.33333 m 2.6667,0 v 1.33333 h 5.3333 l -5.3333,-1.33333 m 110.6667,0 v 1.33333 h 6.6666 l -6.6666,-1.33333 m 122.6666,0 1.3334,1.33333 -1.3334,-1.33333 m 224,0 1.3334,1.33333 -1.3334,-1.33333 m 2.6667,0 v 1.33333 h 10.6667 l -10.6667,-1.33333 m 13.3333,0 v 1.33333 h 4 l -4,-1.33333 m -324,1.33333 1.3334,1.33333 -1.3334,-1.33333 m 17.3334,0 v 1.33333 h 9.3333 l -9.3333,-1.33333 m -110.6667,1.33333 v 1.33334 h 6.6667 l -6.6667,-1.33334 m 121.3333,0 v 1.33334 h 4 l -4,-1.33334 m -109.7773,1.77734 0.888,0.44533 -0.888,-0.44533 m 3.1107,-0.444 v 1.33333 h 4 l -4,-1.33333 m 6.6666,0 v 1.33333 h 5.3334 l -5.3334,-1.33333 m 6.6667,1.33333 1.3333,1.33333 -1.3333,-1.33333 m 2.6667,0 1.3333,1.33333 -1.3333,-1.33333 m 2.6666,0 v 1.33333 h 6.6667 l -6.6667,-1.33333 m 32,1.33333 v 1.33334 h 5.3334 l -5.3334,-1.33334 m 13.3334,0 v 1.33334 h 4 l -4,-1.33334 m 24,1.33334 1.3333,1.33333 -1.3333,-1.33333 m 4,0 1.3333,1.33333 -1.3333,-1.33333 m 17.3333,0 1.3333,1.33333 -1.3333,-1.33333 m -224.444,3.11066 0.888,0.44534 -0.888,-0.44534 m 26.6667,1.33334 0.888,0.44533 -0.888,-0.44533 m 4,1.33333 0.888,0.44533 -0.888,-0.44533 m 17.7773,-0.444 1.3333,1.33333 z" />
    <path
       id="path681"
       style="fill:#2e2f2e;stroke:none;stroke-width:1.33333"
       d="m 696.07225,-345.4692 2.66667,4 v 1.33334 l -6.66667,-1.33334 v 96 c 0,12.77334 -3.38533,30.4 4,41.33334 h 18.66667 l -12,1.33333 v 1.33333 h 21.33333 v -1.33333 h -2.66666 v -1.33333 l 16,-2.66667 v -1.33333 h -6.66667 v -1.33334 l 18.66667,-1.33333 v 1.33333 h -8 v 2.66667 h 22.66666 v -1.33333 h -12 v -1.33334 l 16,2.66667 -1.33333,-2.66667 h 1.33333 c 11.33734,3.32 28.02267,1.22134 40,0.672 3.86267,-0.17733 10.556,2.48934 13.296,-1.216 3.23467,-4.37333 1.37067,-14.29066 1.37067,-19.456 v -50.66666 -37.33334 c 0,-3.64533 1.27467,-10.60133 -1.37067,-13.56266 -3.27866,-3.67067 -14.14,-1.368 -18.62933,-1.544 -14.44267,-0.56934 -47.17067,5.14933 -58.66667,-3.56 l 78.66667,-1.33334 v -5.33333 l -36,1.33333 v -1.33333 l 4,-1.33333 v -1.33334 l -25.33333,4 v -1.33333 l 2.66666,-2.66667 -5.33333,4 h -1.33333 l -14.66667,-0.75466 -40,0.75466 1.33333,-4 h -12 m 120,2.66667 v 1.33333 h -4 l 4,-1.33333 m -110.66666,8 h -12 c 4.00266,-2.128 8.728,-3.68667 12,0 m 25.33333,0 v 1.33333 l -9.33333,-2.66666 h -1.33334 l -5.33333,2.66666 c 3.96267,-5.17733 10.472,-2.93866 16,-1.33333 m 6.66667,-2.66667 -5.33334,4 1.33334,-4 h 4 m -24,1.33334 v 1.33333 l -6.66667,1.33333 v -2.66666 h 6.66667 m 28,0 v 2.66666 h -2.66667 v -2.66666 h 2.66667 m 66.66666,92 -1.33333,1.33333 1.33333,-1.33333 m -65.33333,22.66666 -1.33333,1.33334 1.33333,-1.33334 m 5.33333,0.444 c 1.03067,0 0.21334,0.664 -0.444,0.44534 l 0.444,-0.44534 m 9.33334,-0.444 v 1.33334 h -4 l 4,-1.33334 m 8.88933,0.88934 -0.44533,0.888 0.44533,-0.888 m 12.444,-0.88934 -1.33333,1.33334 1.33333,-1.33334 m 24.88933,0.88934 -0.44533,0.888 0.44533,-0.888 m -106.22266,0.444 v 1.33333 l -4,1.33333 v -1.33333 l 4,-1.33333 m 94.66666,0 -1.33333,1.33333 1.33333,-1.33333 m 16,0 v 2.66666 l -2.66666,-2.66666 h 2.66666 m 4,0 v 2.66666 l -2.66666,-2.66666 h 2.66666 m -108,9.33333 -2.66666,2.66667 v -2.66667 h 2.66666 m 20,1.33333 -2.66666,5.33334 h -1.33334 l -1.33333,-4 5.33333,-1.33334 m -18.66666,1.33334 -1.33334,1.33333 1.33334,-1.33333 m 68,-137.33334 1.33333,1.33334 -1.33333,-1.33334 m 18.66666,0 v 2.66667 l 2.66667,-2.66667 h -2.66667 m -53.33333,136 1.33333,1.33334 -1.33333,-1.33334 m 10.22267,4.444 0.888,0.44534 -0.888,-0.44534 m -49.33334,2.66667 0.888,0.44533 -0.888,-0.44533 m -3.556,0.88933 1.33334,1.33334 -1.33334,-1.33334 m 40,0 1.33334,1.33334 -1.33334,-1.33334 m 2.66667,0 1.33333,1.33334 -1.33333,-1.33334 m 25.33333,0 1.33334,1.33334 -1.33334,-1.33334" />
    <path
       id="path651"
       style="fill:#2e2f2e;stroke:none;stroke-width:1.33333"
       d="m 288.07225,-348.13586 v 1.33333 l 36,-1.33333 h -36 m 37.33334,-1.33334 v 2.66667 h 38.66666 l -38.66666,-2.66667 m 40,1.33334 v 1.33333 h 9.33333 l -9.33333,-1.33333 m 10.66666,0 v 1.33333 h 6.66667 l -6.66667,-1.33333 m 8,0 v 1.33333 h 5.33334 l -5.33334,-1.33333 m 8,0 v 1.33333 h 4 l -4,-1.33333 m 8,0 v 1.33333 h 4 l -4,-1.33333 m 6.66667,2.66666 4,-1.33333 -4,1.33333 m 6.66667,-2.66666 1.33333,1.33333 -1.33333,-1.33333 m 2.66666,0 1.33334,1.33333 -1.33334,-1.33333 m 2.66667,0 v 1.33333 h 4 l -4,-1.33333 m 8,2.66666 14.66667,-1.33333 c -4.51734,-1.896 -11.26134,-2.564 -14.66667,1.33333 m 16,-2.66666 v 1.33333 h 5.33333 l -5.33333,-1.33333 m 6.66667,0 v 1.33333 l 5.33333,1.33333 -4,5.33334 -5.33333,-2.66667 -44,4 -5.33334,-2.66667 v 1.33334 h 2.66667 v 1.33333 l -5.33333,-2.66667 c -12.668,7.03334 -42.496,0.43334 -57.33334,0.0667 -45.48,-1.12267 -90.69733,2.6 -136,2.6 v 1.3333 h 25.33334 l -1.33334,2.66667 h 33.33334 v 1.33333 h -17.33334 v 1.33334 l 54.66667,3.62 18.66667,3.04666 c -12.46667,-3.68533 -41.00134,-3.576 -53.33334,0 -4.45333,-4.68666 -28.16,-2.65866 -32,2.66667 l 20,4 h -29.33333 v 1.33333 l 25.33333,1.33334 v 1.33333 h -14.66666 v 1.33333 l 21.33333,-1.33333 v 1.33333 h -4 v 1.33334 h 9.33333 v 1.33333 h -2.66666 v 1.33333 l 32,-1.33333 18.66666,6.66667 -46.66666,5.33333 -13.33334,0.64133 -30.66666,0.692 v 1.33334 h 48 v 2.66666 l -14.66667,2.66667 1.33333,-4 -12,4 4,1.33333 -13.33333,8 c -15.99867,-4.69866 -35.03467,1.96934 -50.66667,4.88 -13.79866,2.57067 -29.96266,0.452 -44,0.45334 v 1.33333 l 12,4 h 1.33334 17.33333 v 2.66667 h -5.33333 v 1.33333 l 21.33333,-2.66667 28,5.33334 h -44 v 1.33333 l 26.66667,5.33333 h 37.33333 l 17.33333,2.66667 10.66667,1.33333 -1.33333,-2.66666 h 1.33333 c 9.62933,2.564 30.02133,3.332 38.66667,-1.33334 l 2.66666,6.66667 -18.66666,-1.33333 c -7.77867,5.89333 -25.12934,2.40666 -34.66667,2.28 -25.74267,-0.34267 -53.26,-2.408 -78.66667,1.72 v 1.33333 c 8.148,0 20.648,-2.68533 25.33334,5.33333 l 18.66666,2.66667 45.33334,1.944 14.66666,-1.944 h 1.33334 l 8,2.66667 c -5.25334,5.364 -11.69067,3.73866 -18.66667,3.612 -13.85867,-0.25067 -27.512,0.38666 -41.33333,0.388 v 1.33333 l 20,2.66667 v 1.33333 h -5.33334 v 1.33333 h 66.66667 v 1.33334 h -32 v 1.33333 c 37.73733,0.0253 77.192,10.68133 114.66667,5.33333 l -10.66667,5.33334 c 13.328,6.49733 29.39867,4.172 44,5.33333 l -1.33333,-2.66667 28,4 h 1.33333 c 4.096,-3.1 7.904,-3.1 12,0 h 1.33333 c 6.372,-9.43333 4,-22.35733 4,-33.33333 v -73.33333 c 0,-7.77734 3.408,-26.692 -2.66666,-32 l 1.33333,-4 h -9.33333 m 4,6.66666 -1.33334,1.33334 1.33334,-1.33334 m 5.33333,0 v 1.33334 h -4 l 4,-1.33334 m -102.66667,2.66667 v 1.33333 h -12 v 1.33334 h 13.33334 v 1.33333 c -9.54667,2.82133 -19.51067,-0.37733 -29.33334,0.052 -21.43866,0.93733 -49.87866,6.04933 -70.66666,-0.052 6.87066,-6.43867 19.14666,-4 28,-4 h 70.66666 m -116,0 v 2.66667 h -2.66666 v -2.66667 h 2.66666 m 132,1.33333 v 1.33334 l -6.66666,-1.33334 h 6.66666 m 78.66667,0 -4,2.66667 v -1.33333 l 4,-1.33334 m 2.66667,0 -1.33334,1.33334 1.33334,-1.33334 m -82.66667,2.66667 v 1.33333 l -12,-1.33333 h 12 m -52,8 -1.33333,1.33333 1.33333,-1.33333 m -84,1.33333 v 1.33334 h -4 l 4,-1.33334 m 41.33333,4 -1.33333,4 -12,-1.33333 v -1.33333 l 13.33333,-1.33334 m 13.33334,0 v 4 l -5.33334,-1.33333 5.33334,-2.66667 m -10.66667,1.33334 -1.33333,1.33333 1.33333,-1.33333 m 2.66667,0 -1.33334,1.33333 1.33334,-1.33333 m 10.66666,0 h 1.33334 l -1.33334,2.66666 h 1.33334 l 5.33333,-1.33333 v 1.33333 c -3.12,0.88534 -7.37733,1.63734 -6.66667,-2.66666 m -32,2.66666 v 1.33334 h -9.33333 l 9.33333,-1.33334 m 52,8 -6.66666,4 6.66666,-4 m 17.33334,1.33334 v 1.33333 h -14.66667 l 14.66667,-1.33333 m 2.66666,0 -1.33333,1.33333 1.33333,-1.33333 m 5.33334,0 -1.33334,1.33333 1.33334,-1.33333 m 5.33333,0 -1.33333,1.33333 1.33333,-1.33333 m -108,20 1.33333,1.33333 -1.33333,-1.33333 m 8,1.33333 -1.33333,1.33333 1.33333,-1.33333 m -53.33333,9.33333 v 1.33334 h -5.33334 l 5.33334,-1.33334 m 4,1.77734 c 1.03066,0 0.21333,0.664 -0.444,0.44533 l 0.444,-0.44533 m 4,-0.444 -1.33334,1.33333 1.33334,-1.33333 m 8,0 v 1.33333 h -6.66667 l 6.66667,-1.33333 m 41.33333,2.66666 -1.33333,1.33334 1.33333,-1.33334 m -50.66667,1.33334 6.66667,1.33333 v 1.33333 l -6.66667,-2.66666 m 77.33334,0 -1.33334,1.33333 1.33334,-1.33333 m -85.33334,1.33333 v 1.33333 l -5.33333,1.33334 5.33333,-2.66667 m 5.33334,0 -1.33334,1.33333 1.33334,-1.33333 m 74.66666,4.444 c 1.03067,0 0.21334,0.664 -0.444,0.44533 l 0.444,-0.44533 m -53.33333,0.88933 -1.33333,1.33334 1.33333,-1.33334 m 13.33333,0 -1.33333,1.33334 1.33333,-1.33334 m 9.33334,2.66667 -4,-2.66667 4,2.66667 m 28,-2.66667 -1.33334,1.33334 1.33334,-1.33334 m 18.66666,0 -1.33333,1.33334 1.33333,-1.33334 m 41.33334,2.66667 v 1.33333 l -5.33334,1.33334 5.33334,-2.66667 m -36,4 -1.33334,1.33333 1.33334,-1.33333 m 9.33333,2.66667 v 2.66666 h -2.66667 v -2.66666 h 2.66667 m 33.33333,6.66666 -1.33333,1.33334 1.33333,-1.33334 m -134.66666,2.66667 v 1.33333 l -6.66667,1.33334 6.66667,-2.66667 m 14.66666,0 v 4 l -13.33333,-2.66667 13.33333,-1.33333 m 16,2.66667 v 1.33333 h -12 l 12,-1.33333 m 30.66667,-1.33334 v 1.33334 l -5.33333,1.33333 5.33333,-2.66667 m 8,0 -1.33333,1.33334 1.33333,-1.33334 m 13.33333,0 -10.66666,2.66667 10.66666,-2.66667 m 18.66667,0 -5.33333,2.66667 v -1.33333 l 5.33333,-1.33334 m 12,0.444 c 1.03067,0 0.21333,0.664 -0.444,0.44534 l 0.444,-0.44534 m -76,0.88934 v 2.66666 h -5.33333 v -2.66666 h 5.33333 m 52,0 v 1.33333 h -4 l 4,-1.33333 m -46.66667,3.11066 c 1.03067,0 0.21334,0.664 -0.444,0.44534 l 0.444,-0.44534 m 34.66667,3.556 -1.33333,1.33334 1.33333,-1.33334 m 13.33333,0.444 c 1.03067,0 0.21334,0.664 -0.444,0.44534 l 0.444,-0.44534 m -1.33333,2.22267 v 1.33333 h -8 v -2.66666 l 8,1.33333 m 17.33333,-1.33333 -2.66666,2.66666 v -2.66666 h 2.66666 m -13.33333,1.33333 -1.33333,1.33333 1.33333,-1.33333 m 16,0 -1.33333,1.33333 1.33333,-1.33333 m -29.33333,4 v 1.33333 h -6.66667 l 6.66667,-1.33333 m -26.66667,1.33333 -1.33333,1.33334 1.33333,-1.33334 m 2.66667,0 -1.33334,1.33334 1.33334,-1.33334 m -13.33334,1.33334 -1.33333,1.33333 1.33333,-1.33333 m 16,0 -1.33333,1.33333 1.33333,-1.33333 m 62.66667,4 v 1.33333 l -18.66667,-1.33333 h 18.66667 m 9.33333,0 v 2.66666 l -8,-1.33333 8,-1.33333 m 60,5.33333 -1.33333,1.33333 1.33333,-1.33333 m 2.66667,0 1.33333,2.66667 h -2.66666 l 1.33333,-2.66667 m 56,2.66667 h -4 l 1.33333,-2.66667 2.66667,2.66667 m -44,4 v 1.33333 l -8,-1.33333 -14.66667,2.66666 c 4.42934,-5.06933 16.71334,-4.788 22.66667,-2.66666 m 18.66667,0 v 1.33333 l -13.33334,-2.66667 13.33334,1.33334 m 10.66666,-2.66667 v 2.66667 l -6.66666,-1.33334 6.66666,-1.33333 m 16,2.66667 -6.66666,-1.33334 6.66666,1.33334 m -40,1.33333 -1.33333,1.33333 1.33333,-1.33333 m -22.66666,-130.66667 1.33333,1.33334 -1.33333,-1.33334 m -49.77734,3.11067 0.888,0.44533 -0.888,-0.44533 m -130.22266,12.88933 v 1.33334 l 16,-1.33334 4,2.66667 c -4.51067,-6.38533 -13.26,-2.956 -20,-2.66667 m -1.77734,7.11067 0.888,0.44533 -0.888,-0.44533 m 4.444,-0.444 v 1.33333 h 4 l -4,-1.33333 m 8,0 1.33334,1.33333 -1.33334,-1.33333 m -9.33333,8 1.33333,1.33333 -1.33333,-1.33333 m 4,0 1.33333,1.33333 -1.33333,-1.33333 m 9.33333,0 1.33334,1.33333 -1.33334,-1.33333 m 5.33334,0 v 1.33333 h 10.66666 l -10.66666,-1.33333 m 24.88933,1.77733 0.888,0.44534 -0.888,-0.44534 m 9.77733,2.22267 v 1.33333 h 5.33334 l -5.33334,-1.33333 m -17.33333,0 1.33333,1.33333 -1.33333,-1.33333 m 2.66667,0 1.33333,1.33333 -1.33333,-1.33333 m 6.66666,0 v 1.33333 h 5.33334 l -5.33334,-1.33333 m -60,10.66667 1.33334,1.33333 -1.33334,-1.33333 m 29.33334,9.33333 v 1.33333 h 5.33333 l -5.33333,-1.33333 m -6.66667,1.33333 1.33333,1.33334 -1.33333,-1.33334 m -60.444,1.77734 0.888,0.44533 -0.888,-0.44533 m -18.22267,11.556 1.33334,1.33333 -1.33334,-1.33333 m 2.66667,0 1.33333,1.33333 -1.33333,-1.33333 m 133.33333,18.66666 1.33334,1.33334 -1.33334,-1.33334 m 13.33334,0 v 1.33334 h 4 l -4,-1.33334 m -98.22267,10.22267 0.44533,0.888 -0.44533,-0.888 m -4.444,0.444 1.33333,1.33333 -1.33333,-1.33333 m -14.66667,5.33333 1.33334,1.33334 -1.33334,-1.33334 m 2.66667,0 v 1.33334 h 14.66667 l -14.66667,-1.33334 m 54.66667,10.66667 v 1.33333 h 5.33333 l -5.33333,-1.33333 m 142.66666,13.33333 1.33334,1.33334 -1.33334,-1.33334 m 1.33334,2.66667 1.33333,1.33333 -1.33333,-1.33333 m -14.66667,1.33333 v 1.33334 h 4 l -4,-1.33334 m 8,0 1.33333,1.33334 -1.33333,-1.33334 m 34.66667,2.66667 1.33333,1.33333 -1.33333,-1.33333 m 23.556,0.444 0.888,0.44533 -0.888,-0.44533 m 8.444,-0.444 1.33333,1.33333 -1.33333,-1.33333 m 17.33333,0 v 1.33333 h 5.33333 l -5.33333,-1.33333 m -9.33333,2.66667 v 1.33333 h 9.33333 l -9.33333,-1.33333 m -144,4 1.33333,1.33333 -1.33333,-1.33333 m 3.556,0.444 0.888,0.44533 -0.888,-0.44533 m 3.11066,-0.444 1.33334,1.33333 -1.33334,-1.33333 m 28,0 1.33334,1.33333 -1.33334,-1.33333" />
  </g>
</svg>
