<?xml version="1.0" encoding="UTF-8" standalone="no"?>
<!-- Created with Inkscape (http://www.inkscape.org/) -->

<svg
   width="34.91851mm"
   height="38.452782mm"
   viewBox="0 0 34.91851 38.452782"
   version="1.1"
   id="svg1238"
   inkscape:version="1.2.2 (b0a8486541, 2022-12-01)"
   sodipodi:docname="bar-mid.svg"
   xmlns:inkscape="http://www.inkscape.org/namespaces/inkscape"
   xmlns:sodipodi="http://sodipodi.sourceforge.net/DTD/sodipodi-0.dtd"
   xmlns="http://www.w3.org/2000/svg"
   xmlns:svg="http://www.w3.org/2000/svg">
  <sodipodi:namedview
     id="namedview1240"
     pagecolor="#ffffff"
     bordercolor="#000000"
     borderopacity="0.25"
     inkscape:showpageshadow="2"
     inkscape:pageopacity="0.0"
     inkscape:pagecheckerboard="0"
     inkscape:deskcolor="#d1d1d1"
     inkscape:document-units="mm"
     showgrid="false"
     inkscape:zoom="0.2102413"
     inkscape:cx="1624.324"
     inkscape:cy="1724.2093"
     inkscape:window-width="1920"
     inkscape:window-height="1135"
     inkscape:window-x="0"
     inkscape:window-y="0"
     inkscape:window-maximized="1"
     inkscape:current-layer="layer1" />
  <defs
     id="defs1235" />
  <g
     inkscape:label="Layer 1"
     inkscape:groupmode="layer"
     id="layer1"
     transform="translate(323.26858,307.41707)">
    <path
       id="path681"
       style="fill:#2e2f2e;stroke:none;stroke-width:0.352777"
       d="m -322.00535,-307.41707 0.70556,1.05833 v 0.35278 l -1.76389,-0.35278 v 25.4 c 0,3.37961 -0.8957,8.04333 1.05833,10.93611 h 4.93889 l -3.175,0.35278 v 0.35278 h 5.64445 v -0.35278 h -0.70556 v -0.35278 l 4.23334,-0.70555 v -0.35278 h -1.76389 v -0.35278 l 4.93889,-0.35278 v 0.35278 h -2.11667 v 0.70556 h 5.99722 v -0.35278 h -3.175 v -0.35278 l 4.23333,0.70556 -0.35277,-0.70556 h 0.35277 c 2.99967,0.87842 7.41433,0.32315 10.58334,0.1778 1.02199,-0.0469 2.79294,0.65864 3.5179,-0.32173 0.85584,-1.15711 0.36265,-3.78107 0.36265,-5.14774 v -13.40555 -9.87778 c 0,-0.96449 0.33726,-2.80493 -0.36265,-3.58845 -0.86748,-0.9712 -3.74121,-0.36195 -4.92901,-0.40852 -3.82129,-0.15064 -12.48058,1.36243 -15.52223,-0.94192 l 20.81389,-0.35277 v -1.41111 l -9.525,0.35277 v -0.35277 l 1.05834,-0.35278 v -0.35278 l -6.70278,1.05833 v -0.35277 l 0.70555,-0.70556 -1.41111,1.05833 h -0.35277 l -3.88056,-0.19967 -10.58333,0.19967 0.35277,-1.05833 h -3.175 m 31.75,0.70556 v 0.35277 h -1.05833 l 1.05833,-0.35277 m -29.28055,2.11666 h -3.175 c 1.05904,-0.56303 2.30928,-0.97543 3.175,0 m 6.70278,0 v 0.35278 l -2.46945,-0.70556 h -0.35278 l -1.41111,0.70556 c 1.04846,-1.36984 2.77072,-0.77752 4.23334,-0.35278 m 1.76389,-0.70555 -1.41112,1.05833 0.35278,-1.05833 h 1.05834 m -6.35,0.35277 v 0.35278 l -1.76389,0.35278 v -0.70556 h 1.76389 m 7.40833,0 v 0.70556 h -0.70556 v -0.70556 h 0.70556 m 17.63889,24.34167 -0.35278,0.35278 0.35278,-0.35278 m -17.28611,5.99722 -0.35278,0.35278 0.35278,-0.35278 m 1.41111,0.11748 c 0.2727,0 0.0564,0.17568 -0.11748,0.11783 l 0.11748,-0.11783 m 2.46944,-0.11748 v 0.35278 h -1.05833 l 1.05833,-0.35278 m 2.35197,0.23531 -0.11783,0.23495 0.11783,-0.23495 m 3.29248,-0.23531 -0.35278,0.35278 0.35278,-0.35278 m 6.5853,0.23531 -0.11783,0.23495 0.11783,-0.23495 m -28.10475,0.11747 v 0.35278 l -1.05833,0.35277 v -0.35277 l 1.05833,-0.35278 m 25.04722,0 -0.35277,0.35278 0.35277,-0.35278 m 4.23334,0 v 0.70555 l -0.70556,-0.70555 h 0.70556 m 1.05833,0 v 0.70555 l -0.70555,-0.70555 h 0.70555 m -28.575,2.46944 -0.70555,0.70556 v -0.70556 h 0.70555 m 5.29167,0.35278 -0.70556,1.41111 h -0.35278 l -0.35277,-1.05833 1.41111,-0.35278 m -4.93889,0.35278 -0.35278,0.35278 0.35278,-0.35278 m 17.99167,-36.33611 0.35277,0.35278 -0.35277,-0.35278 m 4.93888,0 v 0.70556 l 0.70556,-0.70556 h -0.70556 m -14.11111,35.98333 0.35278,0.35278 -0.35278,-0.35278 m 2.70475,1.17581 0.23495,0.11783 -0.23495,-0.11783 m -13.05278,0.70556 0.23495,0.11782 -0.23495,-0.11782 m -0.94086,0.2353 0.35278,0.35278 -0.35278,-0.35278 m 10.58334,0 0.35278,0.35278 -0.35278,-0.35278 m 0.70555,0 0.35278,0.35278 -0.35278,-0.35278 m 6.70278,0 0.35278,0.35278 -0.35278,-0.35278" />
  </g>
</svg>
