<?xml version="1.0" encoding="UTF-8" standalone="no"?>
<!-- Created with Inkscape (http://www.inkscape.org/) -->

<svg
   width="232.48056mm"
   height="41.275089mm"
   viewBox="0 0 232.48056 41.275089"
   version="1.1"
   id="svg1293"
   inkscape:version="1.2.2 (b0a8486541, 2022-12-01)"
   sodipodi:docname="bar-end.svg"
   xmlns:inkscape="http://www.inkscape.org/namespaces/inkscape"
   xmlns:sodipodi="http://sodipodi.sourceforge.net/DTD/sodipodi-0.dtd"
   xmlns="http://www.w3.org/2000/svg"
   xmlns:svg="http://www.w3.org/2000/svg">
  <sodipodi:namedview
     id="namedview1295"
     pagecolor="#ffffff"
     bordercolor="#000000"
     borderopacity="0.25"
     inkscape:showpageshadow="2"
     inkscape:pageopacity="0.0"
     inkscape:pagecheckerboard="0"
     inkscape:deskcolor="#d1d1d1"
     inkscape:document-units="mm"
     showgrid="false"
     inkscape:zoom="0.2102413"
     inkscape:cx="2818.1903"
     inkscape:cy="2057.16"
     inkscape:window-width="1920"
     inkscape:window-height="1135"
     inkscape:window-x="0"
     inkscape:window-y="0"
     inkscape:window-maximized="1"
     inkscape:current-layer="layer1" />
  <defs
     id="defs1290" />
  <g
     inkscape:label="Layer 1"
     inkscape:groupmode="layer"
     id="layer1"
     transform="translate(639.76571,395.66293)">
    <path
       id="path689"
       style="fill:#2e2f2e;stroke:none;stroke-width:0.352777"
       d="m -487.01291,-395.66293 0.35277,0.35278 -0.35277,-0.35278 m 3.52777,0 0.35276,0.35278 -0.35276,-0.35278 m -141.81667,1.41111 v -0.35277 h 0.70556 v -0.35278 c -1.12678,0.005 -1.85949,-0.14217 -2.11666,1.05833 -3.16161,-0.89323 -6.22795,-1.13559 -9.525,-1.05304 -1.60938,0.0399 -3.47382,0.15028 -3.175,2.11138 l 10.23054,-0.61207 3.175,-0.44627 1.41112,0.70556 1.05834,-0.70556 c 1.27423,1.27035 3.26284,-0.45155 4.5861,-1.05833 l -0.70556,0.70555 v 0.35278 h 3.52779 l -0.70556,1.05834 3.88056,-1.05834 v -0.35278 l -5.64446,-0.70555 h 7.05556 c -4.32824,-1.8161 -9.50912,0.56973 -13.75833,0.70555 m -6.35,-0.35277 -0.70556,0.70555 v -0.70555 h 0.70556 m 1.7639,0 -0.3528,0.35277 0.3528,-0.35277 m 3.88054,0 -0.35277,0.35277 0.35277,-0.35277 m -7.76111,0.47025 0.11748,0.11783 c -0.17391,0.0578 -0.39018,-0.11783 -0.11748,-0.11783 m 3.52777,0.58808 -1.05833,-0.35278 1.05833,0.35278 m 19.75557,-0.70556 -2.11667,0.70556 10.58333,-0.35278 5.99723,1.05834 c 0,-1.33209 1.1751,-0.67593 1.76388,0 l -1.41111,-0.35278 v 0.35278 l 14.40392,0.32596 30.04608,0.37959 -1.05833,1.41111 v -0.70555 l -1.05833,0.70555 -0.35277,-1.05833 h -5.99723 c -2.82398,1.35361 -9.44563,1.1109 -12.34723,0 h -0.35277 l -7.05557,0.35278 -15.16943,-0.1196 -6.70277,-0.58596 -1.05834,0.35278 0.35277,-0.70556 c -1.64888,0.70203 -3.23215,1.13842 -4.93889,0.35278 h -0.35277 l -0.70557,0.70556 v -1.05834 h -1.76387 l -0.70556,1.05834 v -0.70556 l -9.525,0.33549 -19.75557,0.0173 v 32.45556 l 8.46667,0.70555 v -0.35278 h -0.70554 v -0.35277 l 16.58054,1.05833 5.29167,-0.35278 1.76389,0.70556 v -0.35278 h -0.70556 v -0.35277 h 3.88056 v -0.35278 l -4.93889,-0.35278 v -0.35278 l 0.70556,-0.35277 -9.525,-1.05834 v -0.35277 l 38.45277,2.34103 16.93333,0.12841 v 0.35278 h -1.05833 v 0.35278 c 0.59232,-0.0155 2.26589,-0.18063 1.05833,-0.70556 v -0.35278 h 2.11667 v 0.35278 l -1.05833,0.70556 h 1.41112 l 1.05834,-1.05834 -8.1139,-0.70555 v -0.35278 c 7.18045,-1.70886 16.5735,0.61207 23.9889,0.70555 l -0.70557,-1.05833 2.11667,-0.35278 v 0.35278 c -0.81492,0.44909 -0.3316,0.69638 0.35277,1.05833 l -0.35277,-1.05833 14.4639,0.35278 v -0.35278 l -1.41113,-0.70555 c 6.06073,1.31762 13.46906,1.45591 19.75556,0.70555 l -0.35277,1.05833 h 1.41111 v 0.35278 l -13.40557,-0.35278 v 0.35278 h 21.87223 v 0.35278 h -1.7639 v 0.35278 l 9.17224,0.35278 v -0.35278 l -4.9389,-0.35278 v -0.35278 l 2.82223,0.35278 v -0.35278 l -11.2889,-1.76389 0.3528,1.41111 h 2.11666 v 0.70556 h -3.52779 l 0.35279,-1.05833 h -2.11666 l 0.70553,-0.70556 v -0.35278 l -12.3472,-0.35277 v -0.35278 h 7.05554 l 21.51946,0.35278 v -0.35278 l -3.175,-0.35278 v -0.35278 l 5.29167,0.35278 v -0.35278 l -2.82223,-1.05833 v -0.35278 l 2.82223,0.35278 v -0.35278 l -7.05557,-1.76389 0.35277,1.05834 -2.11667,-1.05834 -4.23333,-0.35278 v -0.35277 l 20.10833,0.35277 v -0.70555 l -10.58333,-1.05833 v -0.70556 l 22.93057,0.70556 -1.41111,0.35277 2.82221,1.41111 2.46946,0.35278 v -0.35278 l -0.70556,-0.70555 7.7611,1.05833 v -0.35278 h -4.23334 v -0.35277 h 1.7639 v -0.35278 h -2.82223 v -0.35278 l 3.88057,-1.05833 v -1.41111 l 5.64443,0.70555 v -0.35278 l -4.23333,-0.35277 v -0.35278 l 5.99723,0.70555 4.9389,-0.70555 0.70553,0.70555 c 0,-1.24777 7.65175,-0.90205 9.17223,-0.70555 l 2.46944,-1.41111 v -0.35278 l -5.29167,-1.41111 h 3.88057 v -0.35278 c -2.2719,0 -4.4309,0.32103 -6.35,-1.05833 l 0.35277,-0.35278 c 5.04825,2.69452 13.85006,0 19.40279,0 v -0.35278 l -21.87223,-0.35277 v -0.35278 h 1.4111 v -0.35278 h -4.23333 v -0.35278 h -3.88054 v -0.70555 h 4.5861 v -0.35278 l -3.175,-0.35278 v -0.35278 l 4.58611,-0.70555 v -0.35278 c -3.28787,0.27376 -6.604,-0.25788 -9.87777,-0.14323 -2.0461,0.0716 -4.3321,0.50871 -5.99723,-0.9151 l 2.82223,0.35277 v -0.35277 l -0.70557,-0.35278 3.5278,1.05833 c 0.19754,-1.17898 0.95954,-1.36701 0.70554,-0.35278 h 0.35279 l 0.35277,-1.05833 12.34723,-0.70555 v -0.35278 l -0.70556,-0.70556 h 1.7639 l -0.70557,1.41111 19.40277,-1.76389 v -0.35277 l -0.70554,-0.70556 7.7611,-0.35278 v -0.35277 c -8.56898,0 -17.21556,0.83961 -25.75276,0.6738 -2.07434,-0.0402 -8.1774,-0.45085 -9.525,1.09008 h -0.3528 -0.35277 l -5.29167,-1.76388 9.17224,0.35277 v -0.35277 l -26.45834,-1.76389 v -0.35278 l 16.22777,-0.35278 2.46944,0.70556 c 0.55033,-0.91969 0.91371,-0.82903 0.70556,0 l 18.69723,-1.05834 c -0.92075,-1.31304 -2.44475,-0.75953 -3.88056,-0.70555 v -0.35278 l 3.175,-0.35278 v -0.35277 l -5.99723,-1.05834 -2.46944,1.05834 -0.35277,-0.35278 3.175,-1.05834 v -0.35277 l -11.99446,0.70555 v -0.35278 h 1.7639 v -0.35277 c -2.59292,-0.25506 -5.18584,0.48507 -7.7611,0.6738 -5.12234,0.375 -10.39284,0.17639 -15.52223,0.0554 -2.40594,-0.0568 -7.239,-0.66605 -9.17224,0.68192 -2.50825,-1.73073 -7.97628,-0.64241 -10.9361,-0.54504 -9.23218,0.3048 -18.71133,-0.53023 -27.86943,0.19226 v -0.70556 h 5.64443 l 0.70557,-0.70555 c 0.14462,0.883 1.26645,0.883 1.4111,0 h 1.05833 l -0.35277,0.70555 h 9.525 v -0.35277 l -0.35279,-0.70556 c -3.56304,0.11077 -10.09296,0.20355 -13.40554,-1.05833 l -1.7639,1.05833 c -0.2046,-1.28411 -2.12018,-0.74436 -3.175,-0.71226 -2.19075,0.067 -9.0946,-1.12924 -10.23056,0.71226 h -1.4111 l -4.58611,-0.70555 h -11.64166 v -0.35278 c 5.43983,-1.26012 11.40883,-0.77506 16.96508,-0.76412 1.98612,0.004 5.32694,0.76694 6.67102,-0.99977 l -22.225,0.70661 -39.15833,-0.001 v 0.35278 l 0.70556,0.70556 -1.05833,-1.05834 -7.40834,-0.35277 -10.23056,0.35277 v -0.70555 h 3.52777 c -1.49082,-0.62548 -3.5895,-0.67663 -4.5861,0.70555 m 38.45277,0 -0.35277,0.35278 0.35277,-0.35278 m -27.16388,0.35278 v 0.35278 h -2.46946 l 2.46946,-0.35278 m 44.45,0 -0.35279,0.35278 0.35279,-0.35278 m -36.68889,0.70556 v 0.35278 h -1.7639 l 1.7639,-0.35278 m 4.93889,0 -0.35279,0.35278 0.35279,-0.35278 m 29.28054,0 -0.35277,0.35278 0.35277,-0.35278 m 1.41113,0.11747 0.11642,0.11783 c -0.17288,0.0579 -0.38807,-0.11783 -0.11642,-0.11783 m 1.05833,0 0.11642,0.11783 c -0.17288,0.0579 -0.38806,-0.11783 -0.11642,-0.11783 m 4.58611,0.58808 -0.35277,0.35278 0.35277,-0.35278 m 10.23056,0.70556 -9.87779,-0.35278 c 2.01083,-0.56974 8.40671,-1.26118 9.87779,0.35278 m 9.1722,-0.70556 -0.35276,0.35278 0.35276,-0.35278 m 2.46947,0 -0.3528,0.35278 0.3528,-0.35278 m 3.88053,0 v 0.35278 l -1.76387,0.35278 1.76387,-0.70556 m -26.45833,0.70556 1.05834,1.05833 -1.05834,-1.05833 m 33.16113,0 -0.3528,0.35278 0.3528,-0.35278 m 3.175,0 -0.3528,0.35278 0.3528,-0.35278 m 71.2611,1.41111 8.1139,-0.70556 c -1.64396,-0.79586 -7.5565,-1.26012 -8.1139,0.70556 m -103.0111,-0.94086 c 0.27162,0 0.0564,0.17568 -0.11642,0.11783 l 0.11642,-0.11783 m 14.46387,-0.11747 -0.70554,0.70555 v -0.70555 h 0.70554 m -15.5222,0.35277 v 0.35278 l -1.41113,0.35278 1.41113,-0.70556 m 3.52777,0 1.4111,0.35278 v 0.35278 l -1.4111,-0.70556 m 2.46943,0 -0.35277,0.35278 0.35277,-0.35278 m 2.00025,0.23531 -0.11993,0.23495 0.11993,-0.23495 m 2.23308,0.11747 v 0.35278 h -1.4111 l 1.4111,-0.35278 m 1.29472,-0.11747 -0.11997,0.23495 0.11997,-0.23495 m 6.81918,0.47025 h -1.05833 l 0.35277,-0.70556 0.70556,0.70556 m 3.175,-0.70556 -1.4111,0.70556 1.4111,-0.70556 m -7.7611,0.47026 c 0.27162,0 0.0564,0.17568 -0.11642,0.11782 l 0.11642,-0.11782 m 2.11667,-0.11748 -0.3528,0.35278 0.3528,-0.35278 m 0.70553,0.11748 c 0.27165,0 0.0565,0.17568 -0.11641,0.11782 l 0.11641,-0.11782 m 69.14447,0.2353 -0.3528,0.35278 0.3528,-0.35278 m 12.3472,0.47025 c 0.27165,0 0.0565,0.17569 -0.11642,0.11783 l 0.11642,-0.11783 m -8.11387,0.35278 c 0.27162,0 0.0564,0.17568 -0.11642,0.11783 l 0.11642,-0.11783 m 2.46943,0 c 0.27165,0 0.0564,0.17568 -0.11641,0.11783 l 0.11641,-0.11783 m 2.82224,-0.11747 -0.3528,0.35277 0.3528,-0.35277 m 14.1111,1.05833 -0.35277,0.35278 0.35277,-0.35278 m -1.4111,0.47025 c 0.27162,0 0.0564,0.17568 -0.11642,0.11783 l 0.11642,-0.11783 m -37.04167,0.70556 c 0.27162,0 0.0564,0.17568 -0.11642,0.11782 l 0.11642,-0.11782 m 17.99167,2.35197 c -1.48522,1.82668 -5.97607,0.37041 -8.1139,0.35277 l 8.1139,-0.35277 m 33.51387,0.70555 v 0.35278 h -3.175 l 3.175,-0.35278 m -19.05,0.35278 -0.35277,0.35278 0.35277,-0.35278 m 5.29166,0.70555 v 0.35278 h -2.11666 l 2.11666,-0.35278 m -10.9361,0.11748 c 0.27165,0 0.0564,0.17568 -0.11642,0.11783 l 0.11642,-0.11783 m 4.23333,0.2353 v 0.35278 l -3.52776,0.35278 3.52776,-0.70556 m -7.7611,0.70556 -0.35279,0.70555 h -0.35277 l -0.35277,-0.70555 h 1.05833 m 3.52777,0 v 0.35278 l -2.46943,0.35277 2.46943,-0.70555 m -13.75833,1.76389 v 0.70555 h -0.70557 v -0.70555 h 0.70557 m 11.64166,1.76389 c -0.75848,0.73201 -1.13241,0.90311 -1.76389,0 h 1.76389 m -6.46641,0.2353 -0.11994,0.23495 0.11994,-0.23495 m 3.29141,-0.2353 -1.05833,0.70555 1.05833,-0.70555 m 0.70557,1.41111 v 0.70555 h -4.23333 l 4.23333,-0.70555 m 9.1722,3.52777 -0.35277,0.35278 0.35277,-0.35278 m 2.11667,0.82304 c 0.27165,0 0.0565,0.17568 -0.11642,0.11782 l 0.11642,-0.11782 m -3.175,0.2353 -1.4111,0.70555 v -0.35277 l 1.4111,-0.35278 m 2.46946,0.35278 -1.41113,0.70555 c 0.21522,-1.00577 0.45863,-1.00683 1.41113,-0.70555 m -6.35,0 -0.35279,0.35277 0.35279,-0.35277 m 1.05834,0 -0.3528,0.35277 0.3528,-0.35277 m 6.35,0.70555 v 0.35278 l -1.41113,0.35278 1.41113,-0.70556 m 0.70553,0.35278 -0.35277,0.35278 0.35277,-0.35278 m 0.58915,0.2353 -0.11993,0.23495 0.11993,-0.23495 m 0.82198,0.23495 c 0.27162,0 0.0564,0.17569 -0.11641,0.11783 l 0.11641,-0.11783 m 1.05834,-0.11747 -0.3528,0.35277 0.3528,-0.35277 m 0.70553,0.35277 v 0.70556 h 2.82223 l -2.82223,-0.70556 m -25.0472,1.17581 c 0.27162,0 0.0564,0.17569 -0.11642,0.11783 l 0.11642,-0.11783 m -46.56667,1.64642 -5.99723,-0.70556 c 1.80975,0.0751 4.79073,-0.95603 5.99723,0.70556 m 0.70554,-1.05834 h 1.41113 0.35277 1.4111 l 2.11667,0.35278 c -0.66321,1.15076 -5.82787,1.09114 -5.29167,-0.35278 m 8.1139,0 v 1.05834 l -2.46944,-0.70556 1.05834,0.35278 1.4111,-0.70556 m 1.7639,0 -1.41113,1.41111 0.35279,-1.41111 h 1.05834 m -20.93032,0.58808 -0.11993,0.23495 0.11993,-0.23495 m 24.45809,-0.2353 -1.05834,0.70556 1.05834,-0.70556 m 1.05833,0.11748 c 0.27165,0 0.0564,0.17568 -0.11642,0.11782 l 0.11642,-0.11782 m -23.6361,0.94085 -1.05834,-0.70555 1.05834,0.70555 m 1.76387,-0.70555 v 0.35278 h -1.4111 l 1.4111,-0.35278 m 50.68358,0.58808 -0.11993,0.23495 0.11993,-0.23495 m -42.21692,1.17581 -0.35276,0.35277 0.35276,-0.35277 m 1.7639,0 v 0.35277 h -1.05833 l 1.05833,-0.35277 m 2.82223,0 v 0.70555 h -1.41113 v -0.70555 h 1.41113 m 5.29167,0.70555 v 0.35278 h 1.05833 l -1.05833,-0.35278 m -25.7528,1.76389 -0.35276,0.35278 0.35276,-0.35278 m 20.10834,0.11748 c 0.27165,0 0.0565,0.17568 -0.11642,0.11783 l 0.11642,-0.11783 m 6.70279,0.2353 v 0.35278 h -1.05833 l 1.05833,-0.35278 m 3.88054,0.70555 -1.05833,-0.70555 1.05833,0.70555 m -25.0472,-0.35277 1.76387,0.35277 v 0.35278 l -2.11667,-0.35278 0.3528,-0.35277 m -6.7028,1.05833 h 0.3528 l 1.76387,0.35278 h -6.35 l 0.35279,-1.05834 3.88054,0.70556 m 18.34446,-0.70556 -0.35279,0.35278 0.35279,-0.35278 m -130.64527,0.58809 -0.11781,0.23495 0.11781,-0.23495 m 1.17581,-0.23531 -0.35277,0.35278 0.35277,-0.35278 m 1.41113,0.11748 c 0.27268,0 0.0564,0.17568 -0.11747,0.11783 l 0.11747,-0.11783 m 20.81387,-0.11748 v 0.35278 h -2.11666 l 2.11666,-0.35278 m 3.175,0 v 0.35278 h -2.11666 l 2.11666,-0.35278 m 1.41113,0.70556 -1.05833,-0.70556 1.05833,0.70556 m 9.525,-0.70556 v 0.35278 h -8.1139 l 8.1139,-0.35278 m 2.46944,0.35278 v 0.35278 h -1.41111 l 1.41111,-0.35278 m 26.8111,-0.35278 1.7639,0.35278 v 0.35278 l -1.05834,0.35278 h -0.35277 l -0.70556,-0.70556 0.35277,-0.35278 m 3.41032,0.23531 -0.11785,0.23495 0.11785,-0.23495 m 8.23135,-0.23531 -0.35277,0.35278 0.35277,-0.35278 m 21.16666,0.70556 -1.05833,-0.70556 1.05833,0.70556 m 0.70557,-0.58808 c 0.27164,0 0.0564,0.17568 -0.11642,0.11783 l 0.11642,-0.11783 m 16.22776,-0.11748 v 0.35278 l -0.35276,1.05833 h -1.41111 v -1.41111 h 1.76387 m -111.83053,0.35278 -0.3528,0.35278 0.3528,-0.35278 m 9.87777,1.05833 -4.58611,0.35278 c 1.15745,-1.08479 3.54682,-1.86019 4.58611,-0.35278 m 28.575,-1.05833 v 0.35278 l -2.82223,0.35278 2.82223,-0.70556 m 0.70556,0.11748 0.11748,0.11782 c -0.17394,0.0579 -0.39018,-0.11782 -0.11748,-0.11782 m 2.82221,-0.11748 v 0.35278 h -1.41111 l 1.41111,-0.35278 m 1.05833,0.11748 0.11747,0.11782 c -0.17391,0.0579 -0.39015,-0.11782 -0.11747,-0.11782 m 1.05833,-0.11748 -0.35277,0.35278 0.35277,-0.35278 m 0.70557,0 -0.35277,0.35278 0.35277,-0.35278 m 1.4111,0 -0.35277,0.35278 0.35277,-0.35278 m 21.87223,0 v 0.35278 h -1.05833 l 1.05833,-0.35278 m 11.2889,0 -0.3528,0.35278 0.3528,-0.35278 m 9.87777,0 -0.35277,0.35278 0.35277,-0.35278 m 2.35301,0.2353 -0.11993,0.23495 0.11993,-0.23495 m 1.52755,-0.2353 -0.3528,1.05833 h -0.35276 l 0.70556,-1.05833 m 3.88054,0.11748 c 0.27165,0 0.0565,0.17568 -0.11642,0.11782 l 0.11642,-0.11782 m 1.41113,-0.11748 -0.3528,0.35278 0.3528,-0.35278 m 2.11666,0.70556 h -1.41113 c 0.55034,-0.63959 0.8608,-0.63959 1.41113,0 m 1.76387,-0.70556 h 0.3528 l 0.35277,0.35278 v 0.70555 c -0.79375,-0.16686 -1.10067,-0.30339 -0.70557,-1.05833 m -90.3111,0.70556 v 0.35277 h -1.4111 l 1.4111,-0.35277 m 35.63057,-0.35278 -0.3528,0.35278 0.3528,-0.35278 m 8.81943,0 -0.35277,0.35278 0.35277,-0.35278 m 16.93334,0 -0.35277,0.35278 0.35277,-0.35278 m -60.325,0.47025 0.11747,0.11783 c -0.17391,0.0579 -0.39018,-0.11783 -0.11747,-0.11783 m 82.90276,-0.11747 -0.35276,0.35277 0.35276,-0.35277 m 10.58334,0.35277 0.35279,0.35278 -0.35279,-0.35278 m 0.70556,0 0.35277,0.35278 -0.35277,-0.35278 m 0.70557,0 0.70553,0.70556 v -0.70556 h -0.70553 m -113.24167,0.35278 -0.35279,0.35278 0.35279,-0.35278 m 0.70554,0.35278 -0.35277,0.35278 0.35277,-0.35278 m 15.16946,0.70555 -1.05833,-0.35277 v 1.05833 l -1.7639,-1.05833 2.82223,0.35277 m 3.88054,-0.70555 v 0.70555 h -3.52777 l 3.52777,-0.70555 m 3.175,0.35278 v 0.35277 h -1.05833 l 0.70556,0.70556 v 0.35278 h -1.4111 l 1.76387,-1.41111 m 4.9389,0.70555 -4.58611,-0.35278 c 1.13311,-0.54715 3.80963,-0.75811 4.58611,0.35278 m 31.04443,-0.35278 v 0.35278 h -1.4111 l 1.4111,-0.35278 m 10.93613,-0.35277 -0.35279,0.35277 0.35279,-0.35277 m -56.79723,0.35277 -0.35277,0.35278 0.35277,-0.35278 m 0.70556,0.35278 -0.35279,0.35278 0.35279,-0.35278 m 2.11667,0.11748 0.11748,0.11783 c -0.17394,0.0579 -0.39018,-0.11783 -0.11748,-0.11783 m 2.11667,-0.11748 -0.70557,0.70556 v -0.70556 h 0.70557 m 41.62777,0 v 0.35278 h 1.05833 l -1.05833,-0.35278 m 1.4111,0 v 0.35278 h 1.05833 l -1.05833,-0.35278 m 74.08333,0 -0.35277,0.35278 0.35277,-0.35278 m -114.65277,0.35278 -0.35277,0.35278 0.35277,-0.35278 m 6.70277,0.35278 -0.35277,0.35278 0.35277,-0.35278 m 7.05557,-36.68889 v 0.35278 h 1.76389 l -1.76389,-0.35278 m 10.58333,0 0.35277,0.35278 -0.35277,-0.35278 m 1.05833,0 v 0.35278 h 1.05834 l -1.05834,-0.35278 m 5.64444,0 v 0.35278 h 1.41113 l -1.41113,-0.35278 m 75.84723,0 v 0.35278 h 1.7639 l -1.7639,-0.35278 m 4.9389,0 v 0.35278 h 1.05833 l -1.05833,-0.35278 m 5.9972,0 v 0.35278 h 1.05833 l -1.05833,-0.35278 m 2.00025,0.11748 0.23283,0.11782 -0.23283,-0.11782 m 4.9389,0 0.23283,0.11782 -0.23283,-0.11782 m 2.11667,0 0.23283,0.11782 -0.23283,-0.11782 m 0.82198,-0.11748 0.35277,0.35278 -0.35277,-0.35278 m -108.42027,0.47025 0.23495,0.11783 -0.23495,-0.11783 m 3.64527,-0.11747 0.35277,0.35278 -0.35277,-0.35278 m 65.26387,0 v 0.35278 h 11.2889 l -11.2889,-0.35278 m 11.99446,0 v 0.35278 h 4.93887 l -4.93887,-0.35278 m 5.64444,0 0.35276,0.35278 -0.35276,-0.35278 m -108.30277,1.05833 0.35277,0.35278 -0.35277,-0.35278 m 130.52777,1.41111 h -1.7639 v -0.35277 l 1.05833,-0.35278 v -0.35278 l -4.93887,0.35278 -2.82223,-0.35278 -2.46944,0.70556 v 0.35277 c 8.78417,0 17.77294,1.73955 26.45834,-0.35277 l 2.8222,1.05833 v -0.70556 l 7.40833,0.35278 c -1.4605,-1.11231 -4.18393,-0.99342 -5.9972,-1.06504 -4.5579,-0.17956 -9.23573,-0.52493 -13.80067,-0.42121 -1.47463,0.0335 -5.76791,-0.3676 -5.95489,1.13347 m -7.52475,-0.94086 0.23283,0.11783 -0.23283,-0.11783 m 1.17475,0.23531 0.35276,0.35278 -0.35276,-0.35278 m 8.46666,0 -0.35277,0.35278 0.35277,-0.35278 m 4.23334,0 -0.35277,0.35278 0.35277,-0.35278 m -2.82224,0.35278 -0.35276,0.35277 0.35276,-0.35277 m 0.70557,0 -0.35277,0.35277 0.35277,-0.35277 m 1.4111,0 v 0.35277 h -1.05833 l 1.05833,-0.35277 m 10.58333,0 -0.35276,0.35277 0.35276,-0.35277 m -145.34443,-0.35278 0.35277,0.35278 -0.35277,-0.35278 m 3.52777,0 0.35279,0.35278 -0.35279,-0.35278 m 0.70556,0 0.35277,0.35278 -0.35277,-0.35278 m 7.76111,0 0.35279,0.35278 -0.35279,-0.35278 m 1.41112,0 0.35277,0.35278 -0.35277,-0.35278 m 104.06944,0 0.35277,0.35278 -0.35277,-0.35278 m 59.26666,0 0.35277,0.35278 -0.35277,-0.35278 m 4.58611,0 0.35279,0.35278 -0.35279,-0.35278 m 0.70556,0 0.35277,0.35278 -0.35277,-0.35278 m 1.05833,0 v 0.35278 h 8.46667 l -8.46667,-0.35278 m 10.46692,0.11747 0.23283,0.11783 -0.23283,-0.11783 m -82.78635,0.23531 0.35277,0.35277 -0.35277,-0.35277 m 0.70554,0 v 0.35277 c 1.52048,0.19333 3.59481,1.08585 4.58613,-0.35277 h -4.58613 m 47.27223,0 v 0.35277 h 3.175 l -3.175,-0.35277 m -157.69167,0.35277 0.35277,0.35278 -0.35277,-0.35278 m 13.75834,0 0.35277,0.35278 -0.35277,-0.35278 m 3.52777,0 v 0.35278 h 2.82223 l -2.82223,-0.35278 m 3.52779,0 v 0.35278 h 1.4111 l -1.4111,-0.35278 m 95.25,0 1.4111,1.05834 -1.4111,-1.05834 m 38.1,0 0.35277,0.35278 -0.35277,-0.35278 m -12.7,0.35278 0.35277,0.35278 -0.35277,-0.35278 m 15.5222,0 0.3528,0.35278 -0.3528,-0.35278 m -45.8611,0.35278 0.35277,0.35278 -0.35277,-0.35278 m 0.70557,0 0.35277,0.35278 -0.35277,-0.35278 m 6.35,0 0.35277,0.35278 -0.35277,-0.35278 m 2.11666,0 0.35277,0.35278 -0.35277,-0.35278 m 35.86692,0.11747 0.23283,0.11783 -0.23283,-0.11783 m 10.69975,-0.11747 v 0.35278 h 1.05833 l -1.05833,-0.35278 m 1.4111,0 0.35277,0.35278 -0.35277,-0.35278 m 0.70557,0 v 0.35278 h 1.05833 l -1.05833,-0.35278 m -54.09142,0.47025 0.23283,0.11783 -0.23283,-0.11783 m 6.46642,-0.11747 0.35277,0.35277 -0.35277,-0.35277 m 61.97245,0.11747 0.23283,0.11783 -0.23283,-0.11783 m -2.70579,1.29364 v 0.70555 l 0.70554,-0.70555 h -0.70554 m 7.40834,1.05833 -1.7639,0.70556 v 0.35277 l 3.88056,-0.35277 v -0.35278 l -2.11666,-0.35278 m 8.46666,0.35278 v 0.35278 h 12.34721 c -3.38667,-1.4217 -8.69244,-0.35278 -12.34721,-0.35278 m -15.52223,0.35278 v 0.35277 h 2.46944 l -2.46944,-0.35277 m 2.82223,-0.35278 1.76387,0.70555 v -0.35277 l -1.76387,-0.35278 m 7.05554,0 0.3528,0.35278 -0.3528,-0.35278 m 0.70556,0 0.35277,0.35278 -0.35277,-0.35278 m 0.70557,0 v 0.35278 h 3.88054 l -3.88054,-0.35278 m 16.93333,0 v 0.35278 h 1.4111 l -1.4111,-0.35278 m -45.86113,2.46944 0.3528,0.35278 -0.3528,-0.35278 m 5.99723,1.05834 v 0.35277 h 1.7639 l -1.7639,-0.35277 m 3.175,3.88055 0.35277,0.35278 -0.35277,-0.35278 m -5.29166,0.70556 v 0.35277 l 3.52777,-0.35277 h -3.52777 m 10.9361,-0.35278 v 0.35278 h 8.1139 l -8.1139,-0.35278 m 9.40858,0.11747 0.23284,0.11783 -0.23284,-0.11783 m -25.28358,0.23531 v 0.35277 h 1.41113 l -1.41113,-0.35277 m 2.35305,0.11747 0.23283,0.11783 -0.23283,-0.11783 m 6.46641,0.2353 v 0.35278 l 3.88054,-0.35278 h -3.88054 m 4.23334,-0.35277 0.35276,0.35277 -0.35276,-0.35277 m 0.70553,0 v 0.35277 h 1.05834 l -1.05834,-0.35277 m 11.99447,0.35277 v 0.35278 l 10.23053,-0.35278 h -10.23053 m 14.81666,-0.35277 0.35277,0.35277 -0.35277,-0.35277 m -17.28613,0.70555 v 0.35278 h 1.41113 l -1.41113,-0.35278 m -13.75833,0.70556 v 0.35278 h 10.23056 l -10.23056,-0.35278 m 11.99446,-0.35278 0.35277,0.35278 -0.35277,-0.35278 m -0.70556,0.35278 0.35277,0.35278 -0.35277,-0.35278 m -11.99444,0.35278 0.35277,0.35277 -0.35277,-0.35277 m 0.70554,0.35277 0.3528,0.35278 -0.3528,-0.35278 m 0.70556,0.35278 0.35277,0.35278 -0.35277,-0.35278 m 2.11667,0 0.35277,0.35278 -0.35277,-0.35278 m 18.22802,0.11748 0.23283,0.11782 -0.23283,-0.11782 m -12.93635,0.94085 1.7639,-0.35277 -1.7639,0.35277 m 13.75833,1.41112 v 0.35277 h 2.11667 l -2.11667,-0.35277 m -13.05277,2.11666 v 0.70556 h 0.70554 l -0.70554,-0.70556 m 1.05834,2.11667 v 0.35278 h 1.05833 l -1.05833,-0.35278 m 0.70553,1.05833 0.3528,0.35278 -0.3528,-0.35278 m -19.51918,1.17581 0.23283,0.11783 -0.23283,-0.11783 m 1.52752,-0.11748 v 0.35278 h 1.76389 l -1.76389,-0.35278 m -8.11387,1.41112 v 0.35277 l 7.40833,-0.35277 h -7.40833 m 7.7611,-0.35278 0.35277,0.35278 -0.35277,-0.35278 m 0.70556,0 v 0.35278 h 1.05834 l -1.05834,-0.35278 m 2.58585,0.2353 0.11994,0.23495 -0.11994,-0.23495 m 2.70582,-0.2353 0.35277,0.35278 -0.35277,-0.35278 m 12.3472,0.35278 0.3528,0.35277 -0.3528,-0.35277 m -44.0972,0.35277 v 0.35278 h 2.8222 l -2.8222,-0.35278 m 4.5861,0 v 0.35278 h 2.11667 l -2.11667,-0.35278 m 12.34723,0 0.35277,0.35278 -0.35277,-0.35278 m -19.75556,1.05834 v 0.35277 h 5.99723 l -5.99723,-0.35277 m 6.35,0 v 0.35277 h 4.23333 l -4.23333,-0.35277 m 17.16968,0.47025 0.23284,0.11783 -0.23284,-0.11783 m -25.28358,0.2353 0.3528,0.35278 -0.3528,-0.35278 m 26.10556,0 v 0.35278 h 3.175 l -3.175,-0.35278 m -31.39723,0.35278 v 0.35278 h 1.05834 l -1.05834,-0.35278 m 11.64167,0.35278 0.3528,0.35278 -0.3528,-0.35278 m 9.17223,0 -0.70556,0.35278 v 0.35277 l 0.70556,-0.70555 m -21.87223,0.35278 0.3528,0.35277 -0.3528,-0.35277 m 0.94192,0.11747 0.23283,0.11783 -0.23283,-0.11783 m 0.82198,-0.11747 v 0.35277 h 1.4111 l -1.4111,-0.35277 m 2.35302,0.11747 0.23283,0.11783 -0.23283,-0.11783 m 2.58588,-0.11747 v 0.35277 h 1.05833 l -1.05833,-0.35277 m 2.70578,0.11747 0.23284,0.11783 -0.23284,-0.11783 m 16.69699,-0.11747 v 1.41111 l 1.05833,-1.05834 -1.05833,-0.35277 m 4.93889,0 0.35277,0.35277 -0.35277,-0.35277 m 35.27777,0 v 0.35277 h 2.11667 l -2.11667,-0.35277 m -57.85556,0.35277 0.35279,0.35278 -0.35279,-0.35278 m 2.11666,0 v 0.35278 h 1.41113 l -1.41113,-0.35278 m 7.99749,0.11748 0.23283,0.11783 -0.23283,-0.11783 m -14.81667,0.35278 0.23283,0.11783 -0.23283,-0.11783 m 24.10531,-0.11748 0.35277,0.35278 -0.35277,-0.35278 m -22.93056,0.35278 v 0.35278 h 1.7639 l -1.7639,-0.35278 m 11.99443,0 v 0.35278 h 1.05834 l -1.05834,-0.35278 m 12.7,0 0.3528,0.35278 -0.3528,-0.35278 m -19.75553,0.35278 v 0.35277 h 1.76387 l -1.76387,-0.35277 m -8.81947,0.70555 0.3528,0.35278 -0.3528,-0.35278 m 5.17525,0.47026 0.23284,0.11782 -0.23284,-0.11782 m 3.64422,-0.11748 0.35277,0.35278 -0.35277,-0.35278 m 0.94191,0.47025 0.23284,0.11783 -0.23284,-0.11783 m -10.81971,0.23531 0.3528,0.35277 -0.3528,-0.35277 m -17.04975,0.47025 0.23283,0.11783 -0.23283,-0.11783 m 22.34142,-0.11748 v 0.35278 l 5.64446,0.35278 -5.64446,-0.70556 m 6.58638,0.47026 0.23283,0.11783 -0.23283,-0.11783 m 1.05833,0 0.23283,0.11783 -0.23283,-0.11783 m -48.09773,0.4706 0.11993,0.23495 -0.11993,-0.23495 m -81.96085,0.11748 v 0.35277 h 1.05833 l -1.05833,-0.35277 m 65.61666,0 0.35277,0.35277 -0.35277,-0.35277 m 10.93611,0 0.35276,0.35277 -0.35276,-0.35277 m 4.5861,0 0.35279,0.35277 -0.35279,-0.35277 m 1.7639,0 0.35276,0.35277 -0.35276,-0.35277 m 0.70556,0 0.35277,0.35277 -0.35277,-0.35277 m -12.7,0.35277 0.35277,0.35278 -0.35277,-0.35278 m 13.75833,0 0.35277,0.35278 -0.35277,-0.35278 m -72.08414,0.47026 0.23495,0.11783 -0.23495,-0.11783 m 35.98334,0 0.23495,0.11783 -0.23495,-0.11783 m 0.82301,-0.11748 0.35279,0.35278 -0.35279,-0.35278 m 24.69446,0 0.35277,0.35278 -0.35277,-0.35278 m 0.70554,0 0.35279,0.35278 -0.35279,-0.35278 m 1.05833,0 0.3528,0.35278 -0.3528,-0.35278 m 0.70557,0 0.35276,0.35278 -0.35276,-0.35278 m -53.26944,0.35278 0.35277,0.35278 -0.35277,-0.35278 m 0.70554,0 0.35279,0.35278 -0.35279,-0.35278 m 0.94086,0.11748 0.23495,0.11782 -0.23495,-0.11782 m 6.82027,-0.11748 v 0.35278 h 1.05833 l -1.05833,-0.35278 m 1.4111,0 0.35277,0.35278 -0.35277,-0.35278 m 0.70556,0 v 0.35278 h 1.05834 l -1.05834,-0.35278 m -29.7508,0.47025 0.23495,0.11783 -0.23495,-0.11783 m 5.64443,0 0.23495,0.11783 -0.23495,-0.11783 m 29.75081,-0.11747 0.35277,0.35278 -0.35277,-0.35278 m 0.70556,0 v 0.35278 h 1.05834 l -1.05834,-0.35278 m 7.05554,0 0.3528,0.35278 -0.3528,-0.35278 m -47.625,0.35278 0.3528,0.35277 -0.3528,-0.35277 m 0.70557,0 v 0.35277 h 1.4111 l -1.4111,-0.35277 m 29.28056,0 v 0.35277 h 1.76387 l -1.76387,-0.35277 m 32.45554,0 0.35279,0.35277 -0.35279,-0.35277 m 59.26666,0 0.3528,0.35277 -0.3528,-0.35277 m 0.70557,0 v 0.35277 h 2.82223 l -2.82223,-0.35277 m 3.52777,0 v 0.35277 h 1.05833 l -1.05833,-0.35277 m -85.725,0.35277 0.35279,0.35278 -0.35279,-0.35278 m 4.58613,0 v 0.35278 h 2.46943 l -2.46943,-0.35278 m -29.28057,0.35278 v 0.35278 h 1.7639 l -1.7639,-0.35278 m 32.10277,0 v 0.35278 h 1.05834 l -1.05834,-0.35278 m -29.04524,0.47026 0.23495,0.11782 -0.23495,-0.11782 m 0.82304,-0.11748 v 0.35278 h 1.05833 l -1.05833,-0.35278 m 1.76387,0 v 0.35278 h 1.41113 l -1.41113,-0.35278 m 1.7639,0.35278 0.35277,0.35277 -0.35277,-0.35277 m 0.70556,0 0.35277,0.35277 -0.35277,-0.35277 m 0.70554,0 v 0.35277 h 1.7639 l -1.7639,-0.35277 m 8.46667,0.35277 v 0.35278 h 1.41112 l -1.41112,-0.35278 m 3.52779,0 v 0.35278 h 1.05833 l -1.05833,-0.35278 m 6.35,0.35278 0.35277,0.35278 -0.35277,-0.35278 m 1.05833,0 0.35277,0.35278 -0.35277,-0.35278 m 4.58611,0 0.35277,0.35278 -0.35277,-0.35278 m -59.38414,0.82303 0.23495,0.11783 -0.23495,-0.11783 m 7.05556,0.35278 0.23495,0.11783 -0.23495,-0.11783 m 1.05833,0.35278 0.23495,0.11783 -0.23495,-0.11783 m 4.70358,-0.11748 0.35277,0.35278 z" />
  </g>
</svg>
