<svg width="120" height="120" viewBox="0 0 120 120" fill="none" xmlns="http://www.w3.org/2000/svg">
  <!-- Background circle with organic paint texture -->
  <path d="M 60,10 C 72,8 84,12 92,20 C 100,28 106,40 106,52 C 106,64 100,76 92,84 C 84,92 72,98 60,98 C 48,98 36,92 28,84 C 20,76 14,64 14,52 C 14,40 20,28 28,20 C 36,12 48,8 60,10 Z"
        fill="#d4a574"
        opacity="0.15"/>

  <!-- Beer glass body with irregular brushstroke edges -->
  <path d="M 48,38 L 48,82 C 48,85 49,88 51,90 C 53,92 56,93 59,93 L 61,93 C 64,93 67,92 69,90 C 71,88 72,85 72,82 L 72,38 C 72,36 71,34 69,33 C 67,32 64,32 62,32 L 58,32 C 56,32 53,32 51,33 C 49,34 48,36 48,38 Z"
        fill="none"
        stroke="#5d4037"
        stroke-width="4"
        stroke-linecap="round"
        stroke-linejoin="round"
        opacity="0.85"/>

  <!-- Inner glass shadow for depth -->
  <path d="M 50,40 L 50,80 C 50,83 51,86 53,88 C 54,89 56,90 58,90 L 62,90 C 64,90 66,89 67,88 C 69,86 70,83 70,80 L 70,40"
        fill="none"
        stroke="#5d4037"
        stroke-width="2"
        stroke-linecap="round"
        opacity="0.3"/>

  <!-- Beer liquid with organic shape -->
  <path d="M 49,45 L 49,79 C 49,82 50,85 52,87 C 54,88 56,89 59,89 L 61,89 C 63,89 66,88 68,87 C 70,85 71,82 71,79 L 71,45 Z"
        fill="#c89446"
        opacity="0.5"/>

  <!-- Beer foam with irregular bubbles -->
  <ellipse cx="60" cy="35" rx="14" ry="9"
           fill="#f5e6d3"
           opacity="0.75"/>

  <ellipse cx="55" cy="31" rx="7" ry="5"
           fill="#faf7f2"
           opacity="0.8"/>

  <ellipse cx="65" cy="32" rx="6" ry="4.5"
           fill="#faf7f2"
           opacity="0.8"/>

  <ellipse cx="60" cy="29" rx="5" ry="4"
           fill="#faf7f2"
           opacity="0.85"/>

  <!-- Small foam bubbles -->
  <circle cx="52" cy="34" r="2.5" fill="#faf7f2" opacity="0.7"/>
  <circle cx="68" cy="34" r="2.2" fill="#faf7f2" opacity="0.7"/>
  <circle cx="58" cy="27" r="2" fill="#faf7f2" opacity="0.75"/>
  <circle cx="62" cy="27" r="1.8" fill="#faf7f2" opacity="0.75"/>

  <!-- Hop leaf - left side with artistic brushstroke -->
  <path d="M 28,58 C 26,58 24,59 23,61 C 22,63 22,65 23,67 C 24,69 26,70 28,70 C 29,70 30,69 31,68 L 33,64 L 32,60 C 31,59 30,58 28,58 Z"
        fill="#5d4037"
        opacity="0.7"/>

  <!-- Hop leaf veins -->
  <path d="M 26,60 L 29,64 L 26,68"
        stroke="#3a2a1a"
        stroke-width="0.8"
        stroke-linecap="round"
        opacity="0.5"/>

  <!-- Hop leaf - right side with artistic brushstroke -->
  <path d="M 92,58 C 94,58 96,59 97,61 C 98,63 98,65 97,67 C 96,69 94,70 92,70 C 91,70 90,69 89,68 L 87,64 L 88,60 C 89,59 90,58 92,58 Z"
        fill="#5d4037"
        opacity="0.7"/>

  <!-- Hop leaf veins -->
  <path d="M 94,60 L 91,64 L 94,68"
        stroke="#3a2a1a"
        stroke-width="0.8"
        stroke-linecap="round"
        opacity="0.5"/>

  <!-- Wheat stalk - left with organic brushstrokes -->
  <path d="M 33,72 L 33,88"
        stroke="#b87333"
        stroke-width="2.5"
        stroke-linecap="round"
        opacity="0.65"/>

  <!-- Wheat grains - left side -->
  <ellipse cx="33" cy="74" rx="2.5" ry="4"
           fill="#d4a574"
           opacity="0.6"
           transform="rotate(-15 33 74)"/>

  <ellipse cx="33" cy="78" rx="2.5" ry="4"
           fill="#d4a574"
           opacity="0.6"
           transform="rotate(15 33 78)"/>

  <ellipse cx="33" cy="82" rx="2.5" ry="4"
           fill="#d4a574"
           opacity="0.6"
           transform="rotate(-15 33 82)"/>

  <ellipse cx="33" cy="86" rx="2.5" ry="4"
           fill="#d4a574"
           opacity="0.6"
           transform="rotate(15 33 86)"/>

  <!-- Wheat stalk - right with organic brushstrokes -->
  <path d="M 87,72 L 87,88"
        stroke="#b87333"
        stroke-width="2.5"
        stroke-linecap="round"
        opacity="0.65"/>

  <!-- Wheat grains - right side -->
  <ellipse cx="87" cy="74" rx="2.5" ry="4"
           fill="#d4a574"
           opacity="0.6"
           transform="rotate(15 87 74)"/>

  <ellipse cx="87" cy="78" rx="2.5" ry="4"
           fill="#d4a574"
           opacity="0.6"
           transform="rotate(-15 87 78)"/>

  <ellipse cx="87" cy="82" rx="2.5" ry="4"
           fill="#d4a574"
           opacity="0.6"
           transform="rotate(15 87 82)"/>

  <ellipse cx="87" cy="86" rx="2.5" ry="4"
           fill="#d4a574"
           opacity="0.6"
           transform="rotate(-15 87 86)"/>

  <!-- Decorative brushstroke arc at bottom -->
  <path d="M 38,102 C 48,106 58,108 68,108 C 72,108 76,107 80,106"
        stroke="#b87333"
        stroke-width="3.5"
        fill="none"
        stroke-linecap="round"
        opacity="0.5"/>

  <!-- Additional artistic splatter dots -->
  <circle cx="45" cy="50" r="1.5" fill="#d4a574" opacity="0.3"/>
  <circle cx="75" cy="52" r="1.8" fill="#d4a574" opacity="0.3"/>
  <circle cx="40" cy="65" r="1.3" fill="#b87333" opacity="0.25"/>
  <circle cx="80" cy="67" r="1.6" fill="#b87333" opacity="0.25"/>
  <circle cx="55" cy="95" r="1.4" fill="#c89446" opacity="0.3"/>
  <circle cx="65" cy="97" r="1.5" fill="#c89446" opacity="0.3"/>

  <!-- Paint drips from glass bottom for artistic effect -->
  <ellipse cx="52" cy="96" rx="1.2" ry="3" fill="#5d4037" opacity="0.2"/>
  <ellipse cx="60" cy="97" rx="1.5" ry="3.5" fill="#5d4037" opacity="0.2"/>
  <ellipse cx="68" cy="96" rx="1.3" ry="3.2" fill="#5d4037" opacity="0.2"/>
</svg>
