<svg width="200" height="80" viewBox="0 0 200 80" fill="none" xmlns="http://www.w3.org/2000/svg">
  <!-- Heavy paint stroke with organic, artistic edges -->
  <path d="M 5,35 C 12,45 20,38 28,36 C 38,33 48,28 58,32 C 68,36 78,42 88,40 C 98,38 108,32 118,35 C 128,38 138,43 148,41 C 158,39 168,34 178,37 C 185,39 192,41 195,40"
        stroke="currentColor"
        stroke-width="22"
        fill="none"
        stroke-linecap="round"
        stroke-linejoin="round"
        opacity="0.65"/>

  <!-- Secondary thick layer for depth -->
  <path d="M 8,40 C 16,48 24,42 32,40 C 44,37 56,33 68,37 C 80,41 92,46 104,44 C 116,42 128,37 140,40 C 152,43 164,47 176,45 C 185,43 192,42 198,41"
        stroke="currentColor"
        stroke-width="16"
        fill="none"
        stroke-linecap="round"
        stroke-linejoin="round"
        opacity="0.4"/>

  <!-- Base irregular stroke -->
  <path d="M 3,32 C 11,38 19,34 27,32 C 39,29 51,26 63,30 C 75,34 87,39 99,37 C 111,35 123,30 135,33 C 147,36 159,40 171,38 C 182,36 190,35 197,34"
        stroke="currentColor"
        stroke-width="26"
        fill="none"
        stroke-linecap="round"
        stroke-linejoin="round"
        opacity="0.25"
        style="mix-blend-mode: multiply;"/>

  <!-- Top edge texture -->
  <path d="M 7,28 C 18,25 29,30 40,27 C 52,24 64,22 76,26 C 88,30 100,34 112,32 C 124,30 136,26 148,29 C 160,32 172,35 184,33 L 195,32"
        stroke="currentColor"
        stroke-width="8"
        fill="none"
        stroke-linecap="round"
        stroke-linejoin="round"
        opacity="0.5"/>

  <!-- Bottom edge texture -->
  <path d="M 6,42 C 17,48 28,44 39,42 C 51,40 63,38 75,42 C 87,46 99,50 111,48 C 123,46 135,42 147,45 C 159,48 171,51 183,49 L 194,48"
        stroke="currentColor"
        stroke-width="10"
        fill="none"
        stroke-linecap="round"
        stroke-linejoin="round"
        opacity="0.45"/>

  <!-- Heavy paint drips -->
  <ellipse cx="35" cy="55" rx="4" ry="12" fill="currentColor" opacity="0.55"/>
  <ellipse cx="95" cy="58" rx="3.5" ry="10" fill="currentColor" opacity="0.52"/>
  <ellipse cx="155" cy="56" rx="4.2" ry="11.5" fill="currentColor" opacity="0.54"/>

  <!-- Medium paint drips -->
  <ellipse cx="62" cy="52" rx="2.8" ry="8" fill="currentColor" opacity="0.48"/>
  <ellipse cx="125" cy="54" rx="3.2" ry="9" fill="currentColor" opacity="0.5"/>
  <ellipse cx="178" cy="53" rx="2.9" ry="8.5" fill="currentColor" opacity="0.49"/>

  <!-- Paint splatters around the stroke -->
  <circle cx="20" cy="22" r="2.2" fill="currentColor" opacity="0.4"/>
  <circle cx="55" cy="20" r="1.8" fill="currentColor" opacity="0.38"/>
  <circle cx="88" cy="18" r="2.5" fill="currentColor" opacity="0.42"/>
  <circle cx="120" cy="21" r="1.9" fill="currentColor" opacity="0.39"/>
  <circle cx="152" cy="19" r="2.3" fill="currentColor" opacity="0.41"/>
  <circle cx="185" cy="22" r="2.0" fill="currentColor" opacity="0.4"/>

  <!-- Bottom splatters -->
  <circle cx="42" cy="62" r="1.6" fill="currentColor" opacity="0.35"/>
  <circle cx="78" cy="64" r="1.9" fill="currentColor" opacity="0.37"/>
  <circle cx="112" cy="63" r="1.7" fill="currentColor" opacity="0.36"/>
  <circle cx="142" cy="65" r="2.0" fill="currentColor" opacity="0.38"/>
  <circle cx="172" cy="62" r="1.8" fill="currentColor" opacity="0.37"/>

  <!-- Fine texture details -->
  <path d="M 10,30 Q 25,26 40,29 T 70,32 T 100,30 T 130,33 T 160,31 T 190,34"
        stroke="currentColor"
        stroke-width="5"
        fill="none"
        stroke-linecap="round"
        opacity="0.3"
        stroke-dasharray="4,2"/>

  <!-- Additional organic variation -->
  <path d="M 12,38 C 28,44 44,40 60,38 C 76,36 92,34 108,38 C 124,42 140,46 156,44 C 172,42 184,40 196,42"
        stroke="currentColor"
        stroke-width="6"
        fill="none"
        stroke-linecap="round"
        stroke-linejoin="round"
        opacity="0.25"/>

  <!-- Rough edge splatters -->
  <ellipse cx="25" cy="48" rx="1.5" ry="4" fill="currentColor" opacity="0.3" transform="rotate(-15 25 48)"/>
  <ellipse cx="75" cy="24" rx="1.3" ry="3.5" fill="currentColor" opacity="0.32" transform="rotate(12 75 24)"/>
  <ellipse cx="138" cy="50" rx="1.6" ry="4.2" fill="currentColor" opacity="0.31" transform="rotate(-8 138 50)"/>
  <ellipse cx="168" cy="26" rx="1.4" ry="3.8" fill="currentColor" opacity="0.33" transform="rotate(18 168 26)"/>
</svg>
