<svg width="150" height="150" viewBox="0 0 150 150" fill="none" xmlns="http://www.w3.org/2000/svg">
  <!-- Large central splatter with irregular organic shape -->
  <path d="M 75,40 C 82,38 88,42 92,48 C 96,54 98,62 95,70 C 92,78 85,84 78,88 C 71,92 62,94 54,90 C 46,86 40,78 38,70 C 36,62 37,52 42,46 C 47,40 58,38 65,40 C 70,41 73,42 75,40 Z"
        fill="currentColor"
        opacity="0.18"
        style="mix-blend-mode: multiply;"/>

  <!-- Secondary splatter layer -->
  <ellipse cx="75" cy="68" rx="28" ry="32"
           fill="currentColor"
           opacity="0.15"
           transform="rotate(-12 75 68)"/>

  <!-- Heavy paint drips from main splatter -->
  <path d="M 65,95 L 63,105 C 62,110 63,115 65,118 L 66,122"
        stroke="currentColor"
        stroke-width="8"
        stroke-linecap="round"
        fill="none"
        opacity="0.14"/>

  <path d="M 75,96 L 75,108 C 75,114 76,120 77,125 L 78,132"
        stroke="currentColor"
        stroke-width="10"
        stroke-linecap="round"
        fill="none"
        opacity="0.16"/>

  <path d="M 85,94 L 87,106 C 88,112 88,118 87,123 L 86,128"
        stroke="currentColor"
        stroke-width="7"
        stroke-linecap="round"
        fill="none"
        opacity="0.13"/>

  <!-- Drip bottoms with organic shapes -->
  <ellipse cx="65" cy="122" rx="5" ry="8" fill="currentColor" opacity="0.12"/>
  <ellipse cx="78" cy="132" rx="6" ry="10" fill="currentColor" opacity="0.14"/>
  <ellipse cx="86" cy="128" rx="4.5" ry="7" fill="currentColor" opacity="0.11"/>

  <!-- Medium splatters around main -->
  <ellipse cx="48" cy="55" rx="8" ry="10"
           fill="currentColor"
           opacity="0.11"
           transform="rotate(25 48 55)"/>

  <ellipse cx="102" cy="62" rx="9" ry="11"
           fill="currentColor"
           opacity="0.12"
           transform="rotate(-18 102 62)"/>

  <ellipse cx="58" cy="85" rx="7" ry="9"
           fill="currentColor"
           opacity="0.10"
           transform="rotate(-30 58 85)"/>

  <ellipse cx="95" cy="82" rx="8" ry="10"
           fill="currentColor"
           opacity="0.11"
           transform="rotate(22 95 82)"/>

  <!-- Small splatter droplets scattered around -->
  <circle cx="38" cy="45" r="3.5" fill="currentColor" opacity="0.09"/>
  <circle cx="112" cy="50" r="4.2" fill="currentColor" opacity="0.10"/>
  <circle cx="45" cy="72" r="3.8" fill="currentColor" opacity="0.09"/>
  <circle cx="108" cy="75" r="3.2" fill="currentColor" opacity="0.08"/>
  <circle cx="52" cy="98" r="2.8" fill="currentColor" opacity="0.08"/>
  <circle cx="98" cy="95" r="3.5" fill="currentColor" opacity="0.09"/>

  <!-- Tiny spray dots for texture -->
  <circle cx="32" cy="58" r="1.8" fill="currentColor" opacity="0.07"/>
  <circle cx="118" cy="62" r="2.0" fill="currentColor" opacity="0.07"/>
  <circle cx="42" cy="38" r="1.5" fill="currentColor" opacity="0.06"/>
  <circle cx="108" cy="42" r="1.6" fill="currentColor" opacity="0.06"/>
  <circle cx="60" cy="32" r="2.2" fill="currentColor" opacity="0.08"/>
  <circle cx="90" cy="35" r="1.9" fill="currentColor" opacity="0.07"/>
  <circle cx="72" cy="28" r="1.7" fill="currentColor" opacity="0.07"/>
  <circle cx="82" cy="30" r="2.1" fill="currentColor" opacity="0.08"/>

  <!-- Additional texture around edges -->
  <circle cx="28" cy="70" r="2.4" fill="currentColor" opacity="0.08"/>
  <circle cx="122" cy="72" r="2.6" fill="currentColor" opacity="0.08"/>
  <circle cx="35" cy="85" r="2.0" fill="currentColor" opacity="0.07"/>
  <circle cx="115" cy="88" r="2.3" fill="currentColor" opacity="0.08"/>

  <!-- Elongated drip splatters -->
  <ellipse cx="70" cy="100" rx="2.5" ry="6" fill="currentColor" opacity="0.09" transform="rotate(-5 70 100)"/>
  <ellipse cx="80" cy="102" rx="2.8" ry="7" fill="currentColor" opacity="0.10" transform="rotate(8 80 102)"/>

  <!-- Fine spray pattern on edges -->
  <ellipse cx="50" cy="48" rx="1.2" ry="3" fill="currentColor" opacity="0.06" transform="rotate(45 50 48)"/>
  <ellipse cx="100" cy="52" rx="1.4" ry="3.5" fill="currentColor" opacity="0.06" transform="rotate(-35 100 52)"/>
  <ellipse cx="55" cy="78" rx="1.3" ry="3.2" fill="currentColor" opacity="0.06" transform="rotate(-50 55 78)"/>
  <ellipse cx="95" cy="80" rx="1.5" ry="3.8" fill="currentColor" opacity="0.07" transform="rotate(40 95 80)"/>

  <!-- Top spray splatters -->
  <circle cx="65" cy="35" r="2.5" fill="currentColor" opacity="0.08"/>
  <circle cx="85" cy="38" r="2.2" fill="currentColor" opacity="0.08"/>
  <circle cx="75" cy="32" r="1.8" fill="currentColor" opacity="0.07"/>

  <!-- Side splatters with direction -->
  <ellipse cx="40" cy="65" rx="2" ry="4.5" fill="currentColor" opacity="0.08" transform="rotate(-25 40 65)"/>
  <ellipse cx="110" cy="68" rx="2.2" ry="5" fill="currentColor" opacity="0.08" transform="rotate(30 110 68)"/>
</svg>
