<svg width="300" height="30" viewBox="0 0 300 30" fill="none" xmlns="http://www.w3.org/2000/svg">
  <!-- Main artistic brushstroke underline with irregular edges -->
  <path d="M 2,12 C 8,16 15,14 22,13 C 32,11 42,9 52,11 C 64,13 76,16 88,15 C 100,14 112,11 124,12 C 136,13 148,15 160,14 C 172,13 184,11 196,12 C 208,13 220,15 232,14 C 244,13 256,11 268,12 C 280,13 288,14 295,13"
        stroke="currentColor"
        stroke-width="10"
        fill="none"
        stroke-linecap="round"
        stroke-linejoin="round"
        opacity="0.7"/>

  <!-- Secondary stroke for depth and texture -->
  <path d="M 4,15 C 11,18 18,16 26,15 C 38,13 50,11 62,13 C 76,15 90,18 104,17 C 118,16 132,13 146,14 C 160,15 174,17 188,16 C 202,15 216,13 230,14 C 244,15 258,17 272,16 C 284,15 292,15 298,14"
        stroke="currentColor"
        stroke-width="6"
        fill="none"
        stroke-linecap="round"
        stroke-linejoin="round"
        opacity="0.4"/>

  <!-- Thick base layer for organic paint effect -->
  <path d="M 5,13 C 15,10 25,15 35,12 C 50,9 65,7 80,10 C 95,13 110,17 125,15 C 140,13 155,10 170,12 C 185,14 200,17 215,15 C 230,13 245,10 260,12 C 275,14 285,15 295,14"
        stroke="currentColor"
        stroke-width="14"
        fill="none"
        stroke-linecap="round"
        stroke-linejoin="round"
        opacity="0.25"
        style="mix-blend-mode: multiply;"/>

  <!-- Paint drips for artistic effect -->
  <ellipse cx="45" cy="22" rx="2" ry="5" fill="currentColor" opacity="0.5"/>
  <ellipse cx="115" cy="23" rx="1.8" ry="4.5" fill="currentColor" opacity="0.48"/>
  <ellipse cx="185" cy="22" rx="2.2" ry="5.2" fill="currentColor" opacity="0.52"/>
  <ellipse cx="255" cy="23" rx="1.9" ry="4.8" fill="currentColor" opacity="0.49"/>

  <!-- Small splatter dots -->
  <circle cx="30" cy="8" r="1.2" fill="currentColor" opacity="0.35"/>
  <circle cx="95" cy="7" r="1.4" fill="currentColor" opacity="0.38"/>
  <circle cx="160" cy="8" r="1.1" fill="currentColor" opacity="0.33"/>
  <circle cx="225" cy="7" r="1.3" fill="currentColor" opacity="0.36"/>
  <circle cx="280" cy="8" r="1.2" fill="currentColor" opacity="0.34"/>

  <!-- Fine texture line -->
  <path d="M 8,10 Q 20,8 32,10 T 56,11 T 80,10 T 104,12 T 128,11 T 152,13 T 176,12 T 200,14 T 224,13 T 248,15 T 272,14 T 292,16"
        stroke="currentColor"
        stroke-width="4"
        fill="none"
        stroke-linecap="round"
        opacity="0.3"
        stroke-dasharray="2,1.5"/>

  <!-- Additional organic irregularity -->
  <path d="M 10,14 C 25,12 40,16 55,13 C 70,10 85,14 100,12 C 115,10 130,15 145,13 C 160,11 175,16 190,14 C 205,12 220,17 235,15 C 250,13 265,18 280,16 L 290,15"
        stroke="currentColor"
        stroke-width="3"
        fill="none"
        stroke-linecap="round"
        opacity="0.2"/>
</svg>
