<?xml version="1.0" encoding="UTF-8" standalone="no"?>
<!-- Created with Inkscape (http://www.inkscape.org/) -->

<svg
   width="87.035423mm"
   height="39.86393mm"
   viewBox="0 0 87.035423 39.86393"
   version="1.1"
   id="svg1183"
   inkscape:version="1.2.2 (b0a8486541, 2022-12-01)"
   sodipodi:docname="bar-start.svg"
   xmlns:inkscape="http://www.inkscape.org/namespaces/inkscape"
   xmlns:sodipodi="http://sodipodi.sourceforge.net/DTD/sodipodi-0.dtd"
   xmlns="http://www.w3.org/2000/svg"
   xmlns:svg="http://www.w3.org/2000/svg">
  <sodipodi:namedview
     id="namedview1185"
     pagecolor="#ffffff"
     bordercolor="#000000"
     borderopacity="0.25"
     inkscape:showpageshadow="2"
     inkscape:pageopacity="0.0"
     inkscape:pagecheckerboard="0"
     inkscape:deskcolor="#d1d1d1"
     inkscape:document-units="mm"
     showgrid="false"
     inkscape:zoom="0.2102413"
     inkscape:cx="235.44375"
     inkscape:cy="268.73882"
     inkscape:window-width="1920"
     inkscape:window-height="1135"
     inkscape:window-x="0"
     inkscape:window-y="0"
     inkscape:window-maximized="1"
     inkscape:current-layer="layer1" />
  <defs
     id="defs1180" />
  <g
     inkscape:label="Layer 1"
     inkscape:groupmode="layer"
     id="layer1"
     transform="translate(-43.823372,-78.224161)">
    <path
       id="path651"
       style="fill:#2e2f2e;stroke:none;stroke-width:0.352777"
       d="m 85.098372,78.576931 v 0.35278 l 9.525,-0.35278 h -9.525 m 9.87777,-0.35277 v 0.70555 H 105.2067 l -10.230558,-0.70555 m 10.583338,0.35277 v 0.35278 h 2.46944 l -2.46944,-0.35278 m 2.82222,0 v 0.35278 h 1.76389 l -1.76389,-0.35278 m 2.11666,0 v 0.35278 h 1.41112 l -1.41112,-0.35278 m 2.11667,0 v 0.35278 h 1.05833 l -1.05833,-0.35278 m 2.11667,0 v 0.35278 h 1.05833 l -1.05833,-0.35278 m 1.76389,0.70556 1.05833,-0.35278 -1.05833,0.35278 m 1.76389,-0.70556 0.35277,0.35278 -0.35277,-0.35278 m 0.70555,0 0.35278,0.35278 -0.35278,-0.35278 m 0.70556,0 v 0.35278 h 1.05833 l -1.05833,-0.35278 m 2.11666,0.70556 3.88056,-0.35278 c -1.19521,-0.50165 -2.97956,-0.67839 -3.88056,0.35278 m 4.23334,-0.70556 v 0.35278 h 1.41111 l -1.41111,-0.35278 m 1.76389,0 v 0.35278 l 1.41111,0.35278 -1.05834,1.41111 -1.41111,-0.70555 -11.64166,1.05833 -1.41112,-0.70556 v 0.35278 h 0.70556 v 0.35278 l -1.41111,-0.70556 c -3.35174,1.86091 -11.24373,0.11466 -15.169438,0.0177 -12.03325,-0.29704 -23.99701,0.68792 -35.98334,0.68792 v 0.35277 h 6.70278 l -0.35278,0.70555 h 8.81945 v 0.35278 h -4.58611 v 0.35278 l 14.46388,0.95779 4.93889,0.8061 c -3.29847,-0.97508 -10.84827,-0.94615 -14.11111,0 -1.17827,-1.24002 -7.45066,-0.70344 -8.46666,0.70555 l 5.29166,1.05834 h -7.76111 v 0.35277 l 6.70278,0.35278 v 0.35278 h -3.88056 v 0.35278 l 5.64445,-0.35278 v 0.35278 h -1.05833 v 0.35277 h 2.46944 v 0.35278 h -0.70556 v 0.35278 l 8.46667,-0.35278 4.93889,1.76389 -12.34722,1.41111 -3.52778,0.16969 -8.11389,0.18309 v 0.35278 h 12.7 v 0.70555 l -3.88055,0.70556 0.35277,-1.05834 -3.175,1.05834 1.05834,0.35278 -3.52778,2.11666 c -4.23298,-1.24319 -9.26959,0.52106 -13.40556,1.29117 -3.65089,0.68015 -7.92762,0.11959 -11.64166,0.11994 v 0.35278 l 3.175,1.05833 h 0.35278 4.58611 v 0.70556 h -1.41111 v 0.352779 l 5.64444,-0.705559 7.40833,1.411109 h -11.64166 v 0.35278 l 7.05555,1.41111 h 9.87778 l 4.58611,0.70556 2.82222,0.35278 -0.35278,-0.70556 h 0.35278 c 2.54776,0.67839 7.94315,0.88159 10.23056,-0.35278 l 0.70555,1.76389 -4.93889,-0.35278 c -2.0581,1.55928 -6.6488,0.63677 -9.17222,0.60325 -6.81108,-0.0907 -14.09171,-0.63711 -20.81389,0.45509 v 0.35277 c 2.15583,0 5.46312,-0.71049 6.70278,1.41111 l 4.93889,0.70556 11.99444,0.51435 3.88056,-0.51435 h 0.35278 l 2.11666,0.70556 c -1.38994,1.41922 -3.09315,0.98918 -4.93888,0.95567 -3.66678,-0.0663 -7.27922,0.10231 -10.93612,0.10266 v 0.35278 l 5.29167,0.70555 v 0.35278 h -1.41111 v 0.35278 h 17.63889 v 0.35278 h -8.46667 v 0.35277 c 9.98467,0.007 20.42372,2.82611 30.338888,1.41111 l -2.82222,1.41112 c 3.52636,1.71908 7.7784,1.10384 11.64166,1.41111 l -0.35277,-0.70556 7.40833,1.05833 h 0.35278 c 1.08373,-0.8202 2.09126,-0.8202 3.175,0 h 0.35277 c 1.68593,-2.4959 1.05834,-5.91537 1.05834,-8.81944 V 88.101981 c 0,-2.05775 0.9017,-7.06225 -0.70556,-8.46666 l 0.35278,-1.05834 h -2.46944 m 1.05833,1.76389 -0.35278,0.35278 0.35278,-0.35278 m 1.41111,0 v 0.35278 h -1.05833 l 1.05833,-0.35278 m -27.16389,0.70556 v 0.35278 h -3.174998 v 0.35277 h 3.527778 v 0.35278 c -2.52589,0.74648 -5.162198,-0.0998 -7.761108,0.0138 -5.67231,0.248 -13.19706,1.60055 -18.69722,-0.0138 1.81786,-1.70356 5.06589,-1.05833 7.40833,-1.05833 h 18.697218 m -30.691658,0 v 0.70555 h -0.70556 v -0.70555 h 0.70556 m 34.924988,0.35278 v 0.35277 l -1.76388,-0.35277 h 1.76388 m 20.81389,0 -1.05833,0.70555 v -0.35278 l 1.05833,-0.35277 m 0.70556,0 -0.35278,0.35277 0.35278,-0.35277 m -21.87222,0.70555 v 0.35278 l -3.175,-0.35278 h 3.175 m -13.758338,2.11667 -0.35277,0.35278 0.35277,-0.35278 m -22.22499,0.35278 v 0.35277 h -1.05834 l 1.05834,-0.35277 m 10.93611,1.05833 -0.35278,1.05833 -3.175,-0.35277 v -0.35278 l 3.52778,-0.35278 m 3.52777,0 v 1.05833 l -1.41111,-0.35277 1.41111,-0.70556 m -2.82222,0.35278 -0.35278,0.35278 0.35278,-0.35278 m 0.70556,0 -0.35278,0.35278 0.35278,-0.35278 m 2.82222,0 h 0.35278 l -0.35278,0.70555 h 0.35278 l 1.41111,-0.35277 v 0.35277 c -0.8255,0.23425 -1.95192,0.43321 -1.76389,-0.70555 m -8.46667,0.70555 v 0.35278 h -2.46944 l 2.46944,-0.35278 m 13.75834,2.11667 -1.76389,1.05833 1.76389,-1.05833 m 4.58611,0.35278 v 0.35277 h -3.88056 l 3.88056,-0.35277 m 0.70555,0 -0.35278,0.35277 0.35278,-0.35277 m 1.41111,0 -0.35277,0.35277 0.35277,-0.35277 m 1.41111,0 -0.35277,0.35277 0.35277,-0.35277 m -28.57499,5.29166 0.35277,0.35278 -0.35277,-0.35278 m 2.11666,0.35278 -0.35278,0.35278 0.35278,-0.35278 m -14.11111,2.46945 v 0.35277 h -1.41111 l 1.41111,-0.35277 m 1.05834,0.47025 c 0.27269,0 0.0564,0.17568 -0.11748,0.11783 l 0.11748,-0.11783 m 1.05833,-0.11748 -0.35278,0.35278 0.35278,-0.35278 m 2.11667,0 v 0.35278 h -1.76389 l 1.76389,-0.35278 m 10.93611,0.70556 -0.35278,0.35278 0.35278,-0.35278 m -13.40556,0.35278 1.76389,0.35277 v 0.35278 l -1.76389,-0.70555 m 20.46111,0 -0.35278,0.35277 0.35278,-0.35277 m -22.57778,0.35277 v 0.35278 l -1.41111,0.35278 1.41111,-0.70556 m 1.41112,0 -0.35278,0.35278 0.35278,-0.35278 m 19.75555,1.175809 c 0.2727,0 0.0564,0.17569 -0.11748,0.11783 l 0.11748,-0.11783 m -14.11111,0.23531 -0.35278,0.35277 0.35278,-0.35277 m 3.52778,0 -0.35278,0.35277 0.35278,-0.35277 m 2.46944,0.70555 -1.05833,-0.70555 1.05833,0.70555 m 7.40833,-0.70555 -0.35277,0.35277 0.35277,-0.35277 m 4.93889,0 -0.35278,0.35277 0.35278,-0.35277 m 10.93611,0.70555 v 0.35278 l -1.41111,0.35278 1.41111,-0.70556 m -9.525,1.05833 -0.35277,0.35278 0.35277,-0.35278 m 2.46945,0.70556 v 0.70556 h -0.70556 v -0.70556 h 0.70556 m 8.81944,1.76389 -0.35278,0.35278 0.35278,-0.35278 m -35.63055,0.70555 v 0.35278 l -1.76389,0.35278 1.76389,-0.70556 m 3.88055,0 v 1.05834 l -3.52777,-0.70556 3.52777,-0.35278 m 4.23334,0.70556 v 0.35278 h -3.175 l 3.175,-0.35278 m 8.11389,-0.35278 v 0.35278 l -1.41112,0.35278 1.41112,-0.70556 m 2.11666,0 -0.35278,0.35278 0.35278,-0.35278 m 3.52778,0 -2.82222,0.70556 2.82222,-0.70556 m 4.93889,0 -1.41111,0.70556 v -0.35278 l 1.41111,-0.35278 m 3.175,0.11748 c 0.2727,0 0.0564,0.17568 -0.11748,0.11783 l 0.11748,-0.11783 m -20.10833,0.2353 v 0.70555 h -1.41112 v -0.70555 h 1.41112 m 13.75833,0 v 0.35278 h -1.05834 l 1.05834,-0.35278 m -12.34722,0.82303 c 0.27269,0 0.0564,0.17568 -0.11748,0.11783 l 0.11748,-0.11783 m 9.17222,0.94086 -0.35278,0.35278 0.35278,-0.35278 m 3.52778,0.11747 c 0.27269,0 0.0564,0.17569 -0.11748,0.11783 l 0.11748,-0.11783 m -0.35278,0.58808 v 0.35278 h -2.11667 v -0.70555 l 2.11667,0.35277 m 4.58611,-0.35277 -0.70556,0.70555 v -0.70555 h 0.70556 m -3.52778,0.35277 -0.35278,0.35278 0.35278,-0.35278 m 4.23333,0 -0.35277,0.35278 0.35277,-0.35278 m -7.76111,1.05834 v 0.35277 h -1.76388 l 1.76388,-0.35277 m -7.05555,0.35277 -0.35278,0.35278 0.35278,-0.35278 m 0.70555,0 -0.35277,0.35278 0.35277,-0.35278 m -3.52777,0.35278 -0.35278,0.35278 0.35278,-0.35278 m 4.23333,0 -0.35278,0.35278 0.35278,-0.35278 m 16.58055,1.05834 v 0.35277 l -4.93888,-0.35277 h 4.93888 m 2.46945,0 v 0.70555 l -2.11667,-0.35278 2.11667,-0.35277 m 15.874998,1.41111 -0.35278,0.35277 0.35278,-0.35277 m 0.70555,0 0.35278,0.70555 h -0.70555 l 0.35277,-0.70555 m 14.81667,0.70555 h -1.05833 l 0.35277,-0.70555 0.70556,0.70555 m -11.64167,1.05834 v 0.35277 l -2.11666,-0.35277 -3.88056,0.70555 c 1.17193,-1.34126 4.42207,-1.26682 5.99722,-0.70555 m 4.93889,0 v 0.35277 l -3.52778,-0.70555 3.52778,0.35278 m 2.82222,-0.70556 v 0.70556 l -1.76388,-0.35278 1.76388,-0.35278 m 4.23334,0.70556 -1.76389,-0.35278 1.76389,0.35278 m -10.58334,0.35277 -0.35277,0.35278 0.35277,-0.35278 m -5.99722,-34.572219 0.35278,0.35278 -0.35278,-0.35278 m -13.170248,0.82303 0.23495,0.11783 -0.23495,-0.11783 m -34.45474,3.41031 v 0.35277 l 4.23333,-0.35277 1.05833,0.70555 c -1.19345,-1.68945 -3.50837,-0.78211 -5.29166,-0.70555 m -0.47026,1.88136 0.23495,0.11783 -0.23495,-0.11783 m 1.17581,-0.11747 v 0.35277 h 1.05833 l -1.05833,-0.35277 m 2.11667,0 0.35277,0.35277 -0.35277,-0.35277 m -2.46945,2.11666 0.35278,0.35278 -0.35278,-0.35278 m 1.05834,0 0.35277,0.35278 -0.35277,-0.35278 m 2.46944,0 0.35278,0.35278 -0.35278,-0.35278 m 1.41111,0 v 0.35278 h 2.82222 l -2.82222,-0.35278 m 6.5853,0.47025 0.23495,0.11783 -0.23495,-0.11783 m 2.58692,0.58808 v 0.35278 h 1.41111 l -1.41111,-0.35278 m -4.58611,0 0.35278,0.35278 -0.35278,-0.35278 m 0.70556,0 0.35278,0.35278 -0.35278,-0.35278 m 1.76389,0 v 0.35278 h 1.41111 l -1.41111,-0.35278 m -15.875,2.82223 0.35278,0.35277 -0.35278,-0.35277 m 7.76111,2.46944 v 0.35278 h 1.41111 l -1.41111,-0.35278 m -1.76389,0.35278 0.35278,0.35278 -0.35278,-0.35278 m -15.99248,0.47025 0.23495,0.11783 -0.23495,-0.11783 m -4.82141,3.05753 0.35278,0.35277 -0.35278,-0.35277 m 0.70556,0 0.35277,0.35277 -0.35277,-0.35277 m 35.27777,4.938889 0.35278,0.35277 -0.35278,-0.35277 m 3.52778,0 v 0.35277 h 1.05833 l -1.05833,-0.35277 m -25.98808,2.70474 0.11783,0.23495 -0.11783,-0.23495 m -1.17581,0.11748 0.35278,0.35277 -0.35278,-0.35277 m -3.88055,1.41111 0.35278,0.35278 -0.35278,-0.35278 m 0.70555,0 v 0.35278 h 3.88056 l -3.88056,-0.35278 m 14.46389,2.82222 v 0.35278 h 1.41111 l -1.41111,-0.35278 m 37.747218,3.52778 0.35278,0.35278 -0.35278,-0.35278 m 0.35278,0.70555 0.35278,0.35278 -0.35278,-0.35278 m -3.88056,0.35278 v 0.35278 h 1.05834 l -1.05834,-0.35278 m 2.11667,0 0.35278,0.35278 -0.35278,-0.35278 m 9.17222,0.70556 0.35278,0.35277 -0.35278,-0.35277 m 6.23253,0.11747 0.23495,0.11783 -0.23495,-0.11783 m 2.23414,-0.11747 0.35278,0.35277 -0.35278,-0.35277 m 4.58611,0 v 0.35277 h 1.41111 l -1.41111,-0.35277 m -2.46944,0.70555 v 0.35278 h 2.46944 l -2.46944,-0.35278 m -38.099998,1.05834 0.35277,0.35277 -0.35277,-0.35277 m 0.94086,0.11747 0.23495,0.11783 -0.23495,-0.11783 m 0.82303,-0.11747 0.35277,0.35277 -0.35277,-0.35277 m 7.40833,0 0.35278,0.35277 -0.35278,-0.35277" />
  </g>
</svg>
