<?xml version="1.0" encoding="UTF-8" standalone="no"?>
<!-- Created with Inkscape (http://www.inkscape.org/) -->

<svg
   width="220.41473mm"
   height="39.49667mm"
   viewBox="0 0 220.41473 39.49667"
   version="1.1"
   id="svg1293"
   inkscape:version="1.2.2 (b0a8486541, 2022-12-01)"
   sodipodi:docname="bar-mid2.svg"
   xmlns:inkscape="http://www.inkscape.org/namespaces/inkscape"
   xmlns:sodipodi="http://sodipodi.sourceforge.net/DTD/sodipodi-0.dtd"
   xmlns="http://www.w3.org/2000/svg"
   xmlns:svg="http://www.w3.org/2000/svg">
  <sodipodi:namedview
     id="namedview1295"
     pagecolor="#ffffff"
     bordercolor="#000000"
     borderopacity="0.25"
     inkscape:showpageshadow="2"
     inkscape:pageopacity="0.0"
     inkscape:pagecheckerboard="0"
     inkscape:deskcolor="#d1d1d1"
     inkscape:document-units="mm"
     showgrid="false"
     inkscape:zoom="1.1893044"
     inkscape:cx="478.85134"
     inkscape:cy="228.2847"
     inkscape:window-width="1920"
     inkscape:window-height="1135"
     inkscape:window-x="0"
     inkscape:window-y="0"
     inkscape:window-maximized="1"
     inkscape:current-layer="layer1" />
  <defs
     id="defs1290" />
  <g
     inkscape:label="Layer 1"
     inkscape:groupmode="layer"
     id="layer1"
     transform="translate(639.76571,395.64832)">
    <path
       id="path169"
       style="fill:#2e2f2e;stroke:none;stroke-width:0.352777"
       d="m -529.24998,-394.94308 -0.44906,-0.0139 v 0.35243 h 0.44906 z m 0,1.89911 c -2.76967,-0.19628 -6.0458,-0.31213 -6.79906,0.90899 h -1.41129 l -4.58576,-0.7059 h -11.64167 v -0.35243 c 5.43982,-1.26012 11.40861,-0.77524 16.96486,-0.7643 1.98611,0.004 5.32683,0.76677 6.67091,-0.99994 l -22.225,0.70694 -39.15834,-0.001 v 0.35244 l -0.35243,-0.35244 -7.40833,-0.35295 -10.2309,0.35295 v -0.70538 h 3.52795 c -1.49082,-0.62548 -3.58969,-0.6768 -4.58629,0.70538 l -2.11666,0.70539 10.58333,-0.35295 1.26349,0.22324 1.55908,-0.22273 v 0.35244 h -0.82218 l 3.99718,0.70538 c 0,-1.33209 1.17493,-0.67593 1.76371,0 l -1.41128,-0.35243 v 0.35243 l 14.40429,0.32608 30.04571,0.37982 -1.05833,1.41077 v -0.70539 l -1.05834,0.70539 -0.35243,-1.05834 h -5.99757 c -2.82397,1.35361 -9.44545,1.1109 -12.34705,0 h -0.35295 l -7.05538,0.35295 -15.16962,-0.11937 -6.70243,-0.58601 -1.05833,0.35243 0.35243,-0.70538 c -1.64888,0.70203 -3.23198,1.13859 -4.93872,0.35295 h -0.35295 l -0.70538,0.70538 v -1.05833 h -1.76372 l -0.7059,1.05833 v -0.70538 l -9.525,0.33538 -19.75538,0.017 v 32.4559 l 8.46667,0.70539 v -0.35295 h -0.70539 v -0.35244 l 10.93577,0.69815 v -0.69815 h 0.7059 l -0.69918,0.69867 5.6379,0.35967 5.29166,-0.35295 1.76372,0.70538 v -0.35243 h -0.70538 v -0.35295 h 3.88038 v -0.35295 l -4.93872,-0.35244 v -0.35295 l 0.70539,-0.35295 -9.525,-1.05833 v -0.35243 l 38.45295,2.34094 1.76371,0.0134 v 0.11524 h 1.05834 l -0.32918,-0.10955 0.68213,0.005 v 0.10438 h 1.05833 l -0.29662,-0.0987 12.99662,0.0982 v -0.35244 h 2.11667 v 0.35244 l -1.05834,0.7059 h 1.41129 l 1.05833,-1.05834 -8.11423,-0.7059 v -0.35243 c 7.18044,-1.70886 16.57384,0.6119 23.98923,0.70538 l -0.7059,-1.05833 2.11667,-0.35295 v 0.35295 l 13.50201,0.3297 v -0.81081 l -0.44906,-0.22427 c 0.14774,0.0321 0.29975,0.0602 0.44906,0.091 v -0.4439 h -0.44906 l 0.35295,-1.05834 0.0961,0.0176 z m -74.88535,-2.26601 v 0.35295 h 1.76424 z m 59.46924,2.53266 c 2.03421,-0.0423 4.00112,0.18831 4.73666,0.99529 l -9.87795,-0.35295 c 1.00542,-0.28487 3.10708,-0.60001 5.14129,-0.64234 z m -80.6359,32.74529 1.76423,0.22014 v 0.83819 z m 17.63923,0 v 0.35243 h 1.05833 z m 70.90833,0.35243 0.35244,0.35295 z m -21.51961,0.35295 0.35295,0.35295 z m -64.20539,0.11731 0.11731,0.11782 c -0.17394,0.0579 -0.39001,-0.11782 -0.11731,-0.11782 z m 27.39885,0 0.23513,0.11782 z m 35.98333,0 0.23513,0.11782 z m -25.28218,0.23564 0.35244,0.35244 z m 16.22744,0.35244 0.35295,0.35295 z m 7.76128,0 0.35295,0.35295 z m -43.15654,0.1173 0.23513,0.11834 z m -4.46846,0.23565 0.35295,0.35295 z m 65.26372,-2.46962 c -0.81492,0.44909 -0.33142,0.69638 0.35295,1.05833 z m 0.7059,0.7059 0.35243,0.35243 z m -37.39462,0.35243 v 0.35295 h -1.41128 z m 15.875,0.70539 v 0.35295 h -1.05833 v 0.35295 c 0.59232,-0.0155 2.26589,-0.18097 1.05833,-0.7059 z m -57.49623,0.34623 -0.007,-5.2e-4 v 0.007 z m 21.04367,-34.91828 -0.7369,-0.12971 -0.91054,0.12971 z m -14.90348,-2.08618 c -3.48228,-0.0888 -7.19334,1.27893 -10.38024,1.38079 v -0.35295 h 0.7059 v -0.35295 c -1.12678,0.005 -1.8595,-0.14216 -2.11667,1.05834 -3.16161,-0.89323 -6.22795,-1.1352 -9.525,-1.05265 -1.60938,0.0399 -3.47382,0.14988 -3.175,2.11098 l 10.23038,-0.61185 3.175,-0.44648 1.41129,0.7059 1.05833,-0.7059 c 1.27423,1.27035 3.26251,-0.45156 4.58577,-1.05834 l -0.70539,0.7059 v 0.35244 h 3.52795 l -0.7059,1.05833 3.8809,-1.05833 v -0.35244 l -5.64461,-0.7059 h 7.05538 c -1.08206,-0.45402 -2.21733,-0.6453 -3.37809,-0.67489 z m -17.43563,1.02784 h 0.70539 l -0.70539,0.70539 z m -1.41128,0.47026 0.11782,0.11782 c -0.17391,0.0578 -0.39052,-0.11782 -0.11782,-0.11782 z m 13.4059,0.23564 0.35243,0.35244 z m 4.93872,0.70539 0.35295,0.35295 z m 23.98871,0 v 0.35295 h -1.76371 z m -9.17205,0.70538 v 0.35295 h 2.82205 z m 3.52795,0 v 0.35295 h 1.41077 z m 4.58577,34.925 v 0.35295 h 1.76423 z m 32.10295,0 v 0.35295 h 1.05833 z m -28.22205,0.35295 v 0.35295 h 1.05833 z m 1.76372,0 v 0.35295 h 1.41128 z m 11.64166,0.70538 v 0.35295 h 1.41129 z m 3.52795,0 v 0.35295 h 1.05834 z" />
    <path
       id="path169-3"
       style="fill:#2e2f2e;stroke:none;stroke-width:0.352777"
       d="m -529.8667,-394.95482 0.44906,-0.0139 v 0.35243 h -0.44906 z m 0,1.89911 c 2.76967,-0.19628 6.0458,-0.31213 6.79906,0.90899 h 1.41129 l 4.58576,-0.7059 h 11.64167 v -0.35243 c -5.43982,-1.26012 -11.40861,-0.77524 -16.96486,-0.7643 -1.98611,0.004 -5.32683,0.76677 -6.67091,-0.99994 l 22.225,0.70694 c 3.86475,2.14843 73.83765,0.72054 28.98738,1.73585 l -30.04571,0.37982 1.05833,1.41077 v -0.70539 l 1.05834,0.70539 0.35243,-1.05834 h 5.99757 c 2.82397,1.35361 9.44545,1.1109 12.34705,0 h 0.35295 l 7.05538,0.35295 15.16962,-0.11937 6.70243,-0.58601 1.05833,0.35243 -0.35243,-0.70538 c 1.64888,0.70203 3.23198,1.13859 4.93872,0.35295 h 0.35295 l 0.70538,0.70538 v -1.05833 h 1.76372 l 0.7059,1.05833 v -0.70538 l 9.525,0.33538 19.75538,0.017 v 32.4559 l -8.46667,0.70539 -0.51272,-1.03643 -1.34506,-1.19577 -2.05045,-0.35288 c -9.36533,-0.57403 -5.48562,2.52456 -11.96677,2.93803 -40.88223,-2.53702 -44.4812,-6.51649 -34.925,-0.83406 l -1.76371,0.0134 v 0.11524 h -1.05834 l 0.32918,-0.10955 -0.68213,0.005 v 0.10438 h -1.05833 l 0.29662,-0.0987 c -8.73705,0.28618 -3.43938,-1.9381 -8.41034,-0.96014 v -0.35243 c -7.18044,-1.70886 -20.86267,-2.52937 -9.97334,1.55122 l -13.30999,-1.90417 -2.11667,-0.35295 v 0.35295 l -13.50201,0.3297 v -0.81081 l 0.44906,-0.22427 c -0.14774,0.0321 -0.29975,0.0602 -0.44906,0.091 v -0.4439 h 0.44906 l -0.35295,-1.05834 -0.0961,0.0176 z m 15.41611,0.26665 c -2.03421,-0.0423 -4.00112,0.18831 -4.73666,0.99529 l 9.87795,-0.35295 c -1.00542,-0.28487 -3.10708,-0.60001 -5.14129,-0.64234 z m 50.41449,33.56798 -0.23513,0.11782 z m -10.70115,0.23564 c -110.01897,-24.44192 -55.00949,-12.22096 0,0 z m -16.22744,0.35244 -0.35295,0.35295 z m -25.4,-2.11667 c -82.26735,-23.26577 -41.13367,-11.63288 0,0 z m -0.7059,0.7059 c -81.79675,-23.73637 -40.89837,-11.86818 0,0 z m 37.39462,0.35243 v 0.35295 h 1.41128 z m 21.16667,-32.80833 v 0.35295 h -2.82205 z m -3.52795,0 v 0.35295 h -1.41077 z m -21.87205,35.98333 v 0.35295 h -1.41129 z m -3.52795,0 v 0.35295 h -1.05834 z"
       sodipodi:nodetypes="ccccccccccccccccccccccccccccccccccccccccccccccccccccccccccccccccccccccccccccccccccccccccccccccccccccccc" />
  </g>
</svg>
